<svg xmlns="http://www.w3.org/2000/svg" enable-background="new 0 0 492 492" viewBox="0 0 492 492" id="BackendDevelopment"><path d="M430.958,386.384H61.042C41.168,386.384,25,370.216,25,350.342V127.875c0-19.874,16.168-36.042,36.042-36.042h157.797
			c2.761,0,5,2.239,5,5s-2.239,5-5,5H61.042C46.683,101.833,35,113.515,35,127.875v222.467c0,14.359,11.683,26.042,26.042,26.042
			h369.916c14.359,0,26.042-11.683,26.042-26.042V127.875c0-14.36-11.683-26.042-26.042-26.042c-2.762,0-5-2.239-5-5s2.238-5,5-5
			c19.874,0,36.042,16.168,36.042,36.042v222.467C467,370.216,450.832,386.384,430.958,386.384z" fill="#1b3f70" class="color000000 svgShape"></path><path d="M206.676,446.399c-0.784,0-1.58-0.185-2.322-0.575c-2.444-1.285-3.384-4.308-2.1-6.752
			c9.681-18.417,9.666-36.037-0.046-55.451c-1.235-2.47-0.235-5.474,2.235-6.709c2.47-1.236,5.473-0.234,6.708,2.234
			c11.123,22.235,11.108,43.358-0.046,64.578C210.211,445.427,208.474,446.399,206.676,446.399z M285.323,446.399
			c-1.798,0-3.535-0.973-4.43-2.675c-11.153-21.219-11.168-42.343-0.046-64.578c1.234-2.469,4.237-3.472,6.709-2.234
			c2.469,1.235,3.47,4.239,2.234,6.709c-9.712,19.414-9.726,37.034-0.046,55.451c1.285,2.444,0.345,5.467-2.1,6.752
			C286.903,446.215,286.107,446.399,285.323,446.399z" fill="#1b3f70" class="color000000 svgShape"></path><path d="M309.118 446.397H182.882c-2.761 0-5-2.238-5-5s2.239-5 5-5h126.236c2.762 0 5 2.238 5 5S311.88 446.397 309.118 446.397zM324.898 148.064c-62.276 0-111.059-22.503-111.059-51.231 0-28.728 48.783-51.231 111.059-51.231s111.06 22.503 111.06 51.231C435.958 125.561 387.175 148.064 324.898 148.064zM324.898 55.602c-27.58 0-53.482 4.67-72.938 13.15-17.872 7.791-28.122 18.025-28.122 28.081 0 10.056 10.25 20.291 28.122 28.081 19.454 8.48 45.357 13.15 72.938 13.15s53.483-4.67 72.938-13.15c17.872-7.791 28.122-18.025 28.122-28.081 0-10.055-10.25-20.291-28.122-28.081C378.382 60.272 352.479 55.602 324.898 55.602zM324.898 204.628c-62.276 0-111.059-22.503-111.059-51.231 0-2.761 2.239-5 5-5s5 2.239 5 5c0 19.912 40.608 41.231 101.059 41.231s101.06-21.319 101.06-41.231c0-2.761 2.238-5 5-5s5 2.239 5 5C435.958 182.125 387.175 204.628 324.898 204.628zM324.898 261.193c-62.276 0-111.059-22.503-111.059-51.231 0-2.761 2.239-5 5-5s5 2.239 5 5c0 19.912 40.608 41.231 101.059 41.231s101.06-21.319 101.06-41.231c0-2.761 2.238-5 5-5s5 2.239 5 5C435.958 238.69 387.175 261.193 324.898 261.193z" fill="#1b3f70" class="color000000 svgShape"></path><path d="M218.839 214.962c-2.761 0-5-2.239-5-5V96.833c0-2.761 2.239-5 5-5s5 2.239 5 5v113.13C223.839 212.724 221.601 214.962 218.839 214.962zM430.958 214.962c-2.762 0-5-2.239-5-5V96.833c0-2.761 2.238-5 5-5s5 2.239 5 5v113.13C435.958 212.724 433.72 214.962 430.958 214.962zM101.596 252.207c-1.114 0-2.234-.37-3.164-1.131l-34.878-28.542c-1.161-.95-1.833-2.37-1.833-3.87s.673-2.92 1.833-3.87l34.878-28.543c2.137-1.748 5.287-1.435 7.036.703 1.749 2.137 1.434 5.287-.703 7.036l-30.15 24.673 30.15 24.673c2.137 1.749 2.452 4.899.703 7.037C104.48 251.581 103.044 252.207 101.596 252.207zM164.616 252.207c-1.448 0-2.884-.625-3.873-1.833-1.749-2.138-1.434-5.288.703-7.037l30.15-24.673-30.15-24.673c-2.137-1.749-2.452-4.899-.703-7.036 1.75-2.138 4.899-2.451 7.036-.703l34.878 28.543c1.161.95 1.833 2.37 1.833 3.87s-.673 2.92-1.833 3.87l-34.878 28.542C166.851 251.837 165.73 252.207 164.616 252.207zM124.2 256.915c-.428 0-.863-.056-1.297-.171-2.667-.715-4.25-3.457-3.536-6.124l17.819-66.5c.715-2.667 3.457-4.251 6.124-3.536 2.667.715 4.25 3.457 3.536 6.124l-17.819 66.5C128.428 255.442 126.407 256.915 124.2 256.915z" fill="#1b3f70" class="color000000 svgShape"></path><g fill="#1b3f70" class="color000000 svgShape"><path d="M150.265 300.649H68.882c-2.761 0-5-2.238-5-5s2.239-5 5-5h81.383c2.761 0 5 2.238 5 5S153.026 300.649 150.265 300.649zM208.528 300.649h-29.594c-2.761 0-5-2.238-5-5s2.239-5 5-5h29.594c2.761 0 5 2.238 5 5S211.29 300.649 208.528 300.649zM292.687 300.649h-29.595c-2.762 0-5-2.238-5-5s2.238-5 5-5h29.595c2.762 0 5 2.238 5 5S295.448 300.649 292.687 300.649zM424.933 300.649H321.355c-2.762 0-5-2.238-5-5s2.238-5 5-5h103.577c2.762 0 5 2.238 5 5S427.694 300.649 424.933 300.649zM127.258 337.399H68.882c-2.761 0-5-2.238-5-5s2.239-5 5-5h58.376c2.761 0 5 2.238 5 5S130.02 337.399 127.258 337.399zM301.136 337.399h-142.81c-2.761 0-5-2.238-5-5s2.239-5 5-5h142.81c2.762 0 5 2.238 5 5S303.897 337.399 301.136 337.399zM364.272 337.399h-25.807c-2.762 0-5-2.238-5-5s2.238-5 5-5h25.807c2.762 0 5 2.238 5 5S367.034 337.399 364.272 337.399zM425.279 337.399h-25.806c-2.762 0-5-2.238-5-5s2.238-5 5-5h25.806c2.762 0 5 2.238 5 5S428.041 337.399 425.279 337.399z" fill="#1b3f70" class="color000000 svgShape"></path><g fill="#1b3f70" class="color000000 svgShape"><path d="M187.106 150.817h-57.073c-2.761 0-5-2.239-5-5s2.239-5 5-5h57.073c2.761 0 5 2.239 5 5S189.868 150.817 187.106 150.817zM98.948 150.817H68.882c-2.761 0-5-2.239-5-5s2.239-5 5-5h30.065c2.761 0 5 2.239 5 5S101.709 150.817 98.948 150.817z" fill="#1b3f70" class="color000000 svgShape"></path></g></g></svg>