<svg xmlns="http://www.w3.org/2000/svg" fill-rule="evenodd" clip-rule="evenodd" image-rendering="optimizeQuality" shape-rendering="geometricPrecision" text-rendering="geometricPrecision" viewBox="0 0 512 512" id="FrontEnd"><path fill="#1b3f70" d="M418.15 418.89l-324.3 0c-22.25,0 -40.36,-18.1 -40.36,-40.35l0 -251.47c0,-22.25 18.11,-40.36 40.36,-40.36l20.01 0c3.31,0 6,2.69 6,6 0,3.32 -2.69,6 -6,6l-20.01 0c-15.64,0 -28.36,12.72 -28.36,28.36l0 232.66 381.02 0 0 -232.66c0,-15.64 -12.72,-28.36 -28.36,-28.36l-20.01 0c-3.31,0 -6,-2.68 -6,-6 0,-3.31 2.69,-6 6,-6l20.01 0c22.25,0 40.36,18.11 40.36,40.36l0 238.59c0,0.01 0,0.02 0,0.04 0,0.01 0,0.02 0,0.03 0,0.04 0,0.07 -0.01,0.11l0 12.7c0.01,22.25 -18.1,40.35 -40.35,40.35zm-352.66 -47.16l0 6.81c0,15.64 12.72,28.35 28.36,28.35l324.3 0c15.64,0 28.36,-12.71 28.36,-28.35l0 -6.81 -381.02 0z" class="color373435 svgShape"></path><path fill="#1b3f70" d="M284.46 466.31l-56.92 0c-3.31,0 -6,-2.69 -6,-6l0 -47.42c0,-3.31 2.69,-6 6,-6l56.92 0c3.31,0 6,2.69 6,6l0 47.42c0,3.31 -2.69,6 -6,6zm-50.92 -12l44.92 0 0 -35.42 -44.92 0 0 35.42z" class="color373435 svgShape"></path><path fill="#1b3f70" d="M364.39 512l-216.78 0c-3.31 0-6-2.69-6-6l0-22.85c0-15.91 12.94-28.84 28.85-28.84l171.08 0c15.91 0 28.85 12.93 28.85 28.84l0 22.85c0 3.31-2.69 6-6 6zm-210.78-12l204.78 0 0-16.85c0-9.29-7.56-16.85-16.85-16.85l-171.08 0c-9.29 0-16.85 7.56-16.85 16.85l0 16.85zM303.79 395.57l-95.58 0c-3.31 0-6-2.68-6-6 0-3.31 2.69-6 6-6l95.58 0c3.31 0 6 2.69 6 6 0 3.32-2.69 6-6 6zM388.73 288.21l-265.46 0c-8.5 0-15.41-6.91-15.41-15.41l0-257.38c0-8.5 6.91-15.42 15.41-15.42l265.46 0c8.5 0 15.41 6.92 15.41 15.42l0 257.38c0 8.5-6.91 15.41-15.41 15.41zm-265.46-276.21c-1.85 0-3.41 1.57-3.41 3.42l0 257.38c0 1.85 1.56 3.41 3.41 3.41l265.46 0c1.85 0 3.41-1.56 3.41-3.41l0-257.38c0-1.85-1.56-3.42-3.41-3.42l-265.46 0z" class="color373435 svgShape"></path><path fill="#1b3f70" d="M398.14 75.31l-284.28 0c-3.31 0-6-2.68-6-6 0-3.31 2.69-6 6-6l284.28 0c3.31 0 6 2.69 6 6 0 3.32-2.69 6-6 6zM166.46 58.11c-11.27 0-20.44-9.18-20.44-20.45 0-11.28 9.17-20.45 20.44-20.45 11.28 0 20.45 9.17 20.45 20.45 0 11.27-9.17 20.45-20.45 20.45zm0-28.9c-4.65 0-8.44 3.79-8.44 8.45 0 4.66 3.79 8.45 8.44 8.45 4.66 0 8.45-3.79 8.45-8.45 0-4.66-3.79-8.45-8.45-8.45zM359.99 43.66l-93.44 0c-3.31 0-6-2.69-6-6 0-3.31 2.69-6 6-6l93.44 0c3.31 0 6 2.69 6 6 0 3.31-2.69 6-6 6zM219.06 58.11c-11.28 0-20.45-9.18-20.45-20.45 0-11.28 9.17-20.45 20.45-20.45 11.27 0 20.45 9.17 20.45 20.45 0 11.27-9.18 20.45-20.45 20.45zm0-28.9c-4.66 0-8.45 3.79-8.45 8.45 0 4.66 3.79 8.45 8.45 8.45 4.66 0 8.45-3.79 8.45-8.45 0-4.66-3.79-8.45-8.45-8.45zM253.78 243.65l-120.82 0c-3.31 0-6-2.68-6-6l0-126.74c0-3.31 2.69-6 6-6l120.82 0c3.31 0 6 2.69 6 6l0 126.74c0 3.32-2.68 6-6 6zm-114.82-12l108.82 0 0-114.74-108.82 0 0 114.74z" class="color373435 svgShape"></path><path fill="#1b3f70" d="M161.39 212.26c-1.1 0-2.2-.3-3.16-.9-1.77-1.09-2.84-3.02-2.84-5.1l0-63.96c0-2.08 1.08-4.02 2.86-5.11 1.77-1.09 3.99-1.18 5.85-.25l63.96 32.32c2.03 1.03 3.3 3.11 3.3 5.38-.02 2.28-1.31 4.35-3.34 5.36l-63.97 31.64c-.84.42-1.75.62-2.66.62zm6-60.21l0 44.55 44.55-22.04-44.55-22.51zM330.47 175.54l-55.08 0c-3.31 0-6-2.68-6-6l0-55.08c0-3.31 2.69-6 6-6l55.08 0c3.32 0 6 2.69 6 6l0 55.08c0 3.32-2.68 6-6 6zm-49.08-12l43.08 0 0-43.08-43.08 0 0 43.08zM379.04 246.61l-103.06 0c-3.31 0-6-2.68-6-6l0-38.49c0-3.32 2.69-6 6-6l103.06 0c3.31 0 6 2.68 6 6l0 38.49c0 3.32-2.69 6-6 6zm-97.06-12l91.06 0 0-26.49-91.06 0 0 26.49z" class="color373435 svgShape"></path></svg>