<svg xmlns="http://www.w3.org/2000/svg" enable-background="new 0 0 3000 3000" viewBox="0 0 3000 3000" id="Virtuallearningexperience"><g fill="#000000" class="color000000 svgShape"><linearGradient id="a" x1="1345.96" x2="1371.624" y1="293.557" y2="3116.527" gradientUnits="userSpaceOnUse"><stop offset=".008" stop-color="#184f9b" class="stopColor182b9b svgShape"></stop><stop offset="1" stop-color="#03142b" class="stopColor21032b svgShape"></stop></linearGradient><path fill="url(#a)" d="M998.51 425.05c53.73 47.76 423.78 81.35 611.07-47.3s47.3-87.03-113.51-75.67-548.64 77.56-497.56 122.97z"></path><linearGradient id="b" x1="2328.635" x2="2354.299" y1="284.623" y2="3107.594" gradientUnits="userSpaceOnUse"><stop offset=".008" stop-color="#184f9b" class="stopColor182b9b svgShape"></stop><stop offset="1" stop-color="#03142b" class="stopColor21032b svgShape"></stop></linearGradient><path fill="url(#b)" d="M2256.96 1611.1c-4.28-55.6 10.69-263.05 132.59-273.74 121.91-10.7-132.59 273.74-132.59 273.74z"></path><linearGradient id="c" x1="735.481" x2="761.144" y1="299.107" y2="3122.077" gradientUnits="userSpaceOnUse"><stop offset=".008" stop-color="#184f9b" class="stopColor182b9b svgShape"></stop><stop offset="1" stop-color="#03142b" class="stopColor21032b svgShape"></stop></linearGradient><path fill="url(#c)" d="M655.14 1491.34c0-90.25 177.5 124.04 183.92 186.06 6.42 62.02-183.92-124.04-183.92-186.06z"></path><linearGradient id="d" x1="1493.616" x2="1519.279" y1="292.215" y2="3115.185" gradientUnits="userSpaceOnUse"><stop offset=".008" stop-color="#184f9b" class="stopColor182b9b svgShape"></stop><stop offset="1" stop-color="#03142b" class="stopColor21032b svgShape"></stop></linearGradient><path fill="url(#d)" d="M2634.82 594.47c131.48 356.67 33.44 608.81-125.1 673.66-114 46.63-237.47-27.14-308.84 383.84-46.5 227.77-246.55 51.11-266.77 233.17-20.18 182.05-202.08 78.62-261.51 264.46 0 0-188.03 97.5-252.09-113.66s-135.09-181.02-357.39-219.89c-222.3-38.87-140.28-368.95-468.13-373.03-291.63-3.63-474.01-528.28 0-811.89 464.99-278.22 712.18-38.32 1094.19-250.44 566.35-314.48 871.46 12.54 945.64 213.78z"></path><linearGradient id="e" x1="2259.55" x2="2227.369" y1="427.109" y2="2776.462" gradientUnits="userSpaceOnUse"><stop offset=".02" stop-color="#d1ddee" class="stopColord1e1ee svgShape"></stop><stop offset=".363" stop-color="#508ee2" class="stopColor50a7e2 svgShape"></stop><stop offset="1" stop-color="#184f9b" class="stopColor182b9b svgShape"></stop></linearGradient><path fill="url(#e)" d="M2532.61 525.76c-17.19 3.06-33.02 10.44-42.6 25.53-8.63 13.59-11.59 29.99-13.96 45.65-4.28 28.26-6.68 61.5-34.41 77.29-14.92 8.5-33.21 7.83-49.71 6.01-19.28-2.13-38.47-6.39-57.95-5.97-36.42.79-69.14 16.57-95.83 40.53-27.3 24.52-50.87 55.23-84.16 72.09-15.69 7.95-32.86 11.82-50.4 12.06-16.61.23-33.02-2.7-49.35-5.44-34.11-5.72-73.33-9.72-103.63 10.97-26.9 18.37-37.66 51.23-60.45 73.52-10.96 10.72-24.14 19.58-38.89 24.02-4.92 1.48-9.96 2.53-15.04 3.44 77.02 3.88 154.05-3.64 229.8-17.45 78.02-14.22 154.59-35.09 231.55-53.96 75.66-18.55 151.06-38.35 225.31-61.96 37.16-11.81 74.02-24.59 110.41-38.6 13.11-5.05 26.09-10.38 39.02-15.82-9.45-39.5-21.79-80.59-37.51-123.22-7.46-20.23-17.29-41.74-29.45-63.73-24.02-5.8-48.73-9.23-72.75-4.96z" opacity=".1"></path><linearGradient id="f" x1="774.452" x2="742.27" y1="406.764" y2="2756.121" gradientUnits="userSpaceOnUse"><stop offset=".02" stop-color="#d1ddee" class="stopColord1e1ee svgShape"></stop><stop offset=".363" stop-color="#508ee2" class="stopColor50a7e2 svgShape"></stop><stop offset="1" stop-color="#184f9b" class="stopColor182b9b svgShape"></stop></linearGradient><path fill="url(#f)" d="M427.01 1088.37c73.57 16.18 148.96 23.36 224.19 25.32 74.17 1.93 148.41-1.31 222.3-7.7 67.18-5.81 134.54-14.19 199.27-33.87 58.35-17.74 116.53-46.46 154.31-95.35-46.15 27.79-101.1 55.87-154.18 34.43-20.87-8.43-36.22-23.28-50.36-40.39-14.21-17.19-27.61-36.08-47.1-47.73-23.16-13.85-50.43-10.05-75.78-5.85-12.97 2.15-25.95 4.63-39.11 5.26-11.02.53-21.57-1-32.28-3.52-6.54-1.54-13.41-3.46-18.43-8.17-4.2-3.95-6.56-9.4-9.11-14.47-4.73-9.42-9.9-18.87-16.89-26.81-8.73-9.92-18.81-18.68-30.37-25.16-44.48-24.96-97.32-5.85-140.51 12.28-1.76.74-4.26.17-5.01-1.78-9.79-25.52-18.03-54.49-38.2-74.09-16.9-16.42-40.05-22.33-63.01-20.8-23.13 1.54-46.15 6.99-68.15 14.14-7.62 2.48-15.16 5.29-22.64 8.27-70.2 86.05-104.2 179.67-110.77 268.68 39.4 16 80.41 28.2 121.83 37.31z" opacity=".1"></path><path fill="#03142b" d="M2370.71 1248.82c-27.52 6.55-55.89 16.61-78.7 33.79-30.68 23.12-50.45 60.54-70.56 92.4-20.9 33.1-43.46 69.14-77.55 90.18-29.61 18.28-65.36 24.25-99.63 25.25-71.9 2.11-148.42-15.52-212.04-49.17-39.33-20.8-77.63-48.89-122.77-55.11-48.81-6.73-98.7 17.21-139.47 41.62-80.57 48.23-149.4 118.19-238.59 151.25-42.93 15.91-89.38 23.57-134.51 13.26-45.24-10.33-85.23-35.13-124.87-58.19-86.89-50.55-181.81-87.08-281.77-100.38-45.34-6.03-91.79-8.24-137.52-7.7-36.23.43-72.57 3.51-108.05 11.02 16.32 3.68 33.12 5.77 50.32 5.98 327.85 4.08 245.83 334.16 468.13 373.03 222.3 38.87 293.32 8.73 357.39 219.89s252.09 113.66 252.09 113.66c59.43-185.84 241.33-82.41 261.51-264.46 20.22-182.05 220.27-5.4 266.77-233.17 71.37-410.98 194.84-337.21 308.84-383.84 6.74-2.76 13.33-5.98 19.84-9.41-46.03-26.21-110.32-21.46-158.86-9.9z" opacity=".25" class="color21032b svgShape"></path><path fill="#ffffff" d="M2064.95 702.01c-4.54 1.53-5.78 2.77-7.31 7.31-1.53-4.54-2.77-5.78-7.31-7.31 4.54-1.53 5.78-2.77 7.31-7.31 1.53 4.54 2.77 5.78 7.31 7.31zM1686.94 526.8c-6.19 2.09-7.89 3.78-9.98 9.98-2.09-6.19-3.78-7.89-9.98-9.98 6.19-2.09 7.89-3.79 9.98-9.98 2.09 6.19 3.79 7.89 9.98 9.98zM1499.21 794.99c-6.19 2.09-7.89 3.78-9.98 9.98-2.09-6.19-3.78-7.89-9.98-9.98 6.19-2.09 7.89-3.78 9.98-9.98 2.09 6.19 3.78 7.89 9.98 9.98zM2145.4 315.82c-6.19 2.09-7.89 3.78-9.98 9.98-2.09-6.19-3.78-7.89-9.98-9.98 6.19-2.09 7.89-3.78 9.98-9.98 2.1 6.19 3.79 7.89 9.98 9.98zM1041.49 530.37c-6.19 2.09-7.89 3.78-9.98 9.98-2.09-6.19-3.78-7.89-9.98-9.98 6.19-2.09 7.89-3.78 9.98-9.98 2.1 6.2 3.79 7.89 9.98 9.98z" class="colorffffff svgShape"></path><path fill="#ffffff" d="M2079.25 1293.33c3.5 0 6.34-2.84 6.34-6.34 0-3.53-2.84-6.37-6.34-6.37s-6.34 2.84-6.34 6.37c0 3.5 2.84 6.34 6.34 6.34zM2079.25 1326.01c3.5 0 6.34-2.84 6.34-6.34 0-3.53-2.84-6.37-6.34-6.37s-6.34 2.84-6.34 6.37c0 3.49 2.84 6.34 6.34 6.34z" opacity=".8" class="colorffffff svgShape"></path><path fill="#ffffff" d="M2079.25 1358.68c3.5 0 6.34-2.84 6.34-6.34 0-3.53-2.84-6.37-6.34-6.37s-6.34 2.84-6.34 6.37c0 3.5 2.84 6.34 6.34 6.34z" opacity=".6" class="colorffffff svgShape"></path><path fill="#ffffff" d="M2079.25 1391.35c3.5 0 6.34-2.84 6.34-6.34 0-3.53-2.84-6.37-6.34-6.37s-6.34 2.84-6.34 6.37c0 3.5 2.84 6.34 6.34 6.34z" opacity=".3" class="colorffffff svgShape"></path><path fill="#ffffff" d="M1044.03 1275.65c3.5 0 6.34-2.84 6.34-6.34 0-3.53-2.84-6.37-6.34-6.37s-6.34 2.84-6.34 6.37c0 3.5 2.84 6.34 6.34 6.34zM1044.03 1308.32c3.5 0 6.34-2.84 6.34-6.34 0-3.53-2.84-6.37-6.34-6.37s-6.34 2.84-6.34 6.37c0 3.5 2.84 6.34 6.34 6.34z" opacity=".8" class="colorffffff svgShape"></path><path fill="#ffffff" d="M1044.03 1341c3.5 0 6.34-2.84 6.34-6.34 0-3.53-2.84-6.37-6.34-6.37s-6.34 2.84-6.34 6.37c0 3.49 2.84 6.34 6.34 6.34z" opacity=".6" class="colorffffff svgShape"></path><path fill="#ffffff" d="M1044.03 1373.67c3.5 0 6.34-2.84 6.34-6.34 0-3.53-2.84-6.37-6.34-6.37s-6.34 2.84-6.34 6.37c0 3.5 2.84 6.34 6.34 6.34z" opacity=".3" class="colorffffff svgShape"></path></g><g fill="#000000" class="color000000 svgShape"><linearGradient id="g" x1="964.803" x2="2373.701" y1="2907.248" y2="2352.987" gradientUnits="userSpaceOnUse"><stop offset=".02" stop-color="#d1ddee" class="stopColord1e1ee svgShape"></stop><stop offset=".363" stop-color="#508ee2" class="stopColor50a7e2 svgShape"></stop><stop offset="1" stop-color="#184f9b" class="stopColor182b9b svgShape"></stop></linearGradient><path fill="url(#g)" fill-rule="evenodd" d="m2201.49 2673.95-4.02-189.07-829.05 10.37 6.18 204.42z" clip-rule="evenodd"></path><path fill="#1b3f70" fill-rule="evenodd" d="M2138.76 2525.56c-35.97 15.48-72.14 28.9-110.06 38.88-77.48 20.39-157.22 29.42-237.03 34.17-81.27 4.83-163.41 5.76-243.99-7.51-39.7-6.53-78.89-16.51-116.55-30.72-21.12-7.97-41.52-17.54-61.57-27.8l5.05 167.09 826.89-25.72-3.86-181.46c-17.81 13.82-38.46 24.29-58.88 33.07z" clip-rule="evenodd" opacity=".1" class="color132368 svgShape"></path><path fill="#184f9b" fill-rule="evenodd" d="M1368.42 2495.25s-383.42 111.23-542.3-3.17c-6.01-4.32-3.79-5.35-3.51-13.92l795.56-74.19s346.86-7.15 579.29 80.9l-829.04 10.38z" clip-rule="evenodd" class="color182b9b svgShape"></path><path fill="#1b3f70" fill-rule="evenodd" d="M1368.42 2495.25s-383.42 111.23-542.3-3.17c-6.01-4.32-3.79-5.35-3.51-13.92l795.56-74.19s346.86-7.15 579.29 80.9l-829.04 10.38z" clip-rule="evenodd" opacity=".2" class="color132368 svgShape"></path><path fill="#1b3f70" fill-rule="evenodd" d="m833.26 2662.73 541.32 36.93-6.18-204.39c-222.69-5.02-425.62-3.68-544.46-9.61-23.47 63.5 9.32 177.07 9.32 177.07z" clip-rule="evenodd" class="color132368 svgShape"></path><path fill="#d1ddee" fill-rule="evenodd" d="m816.29 2645.96 540.85 36.93-6.18-172.54c-222.69-5.02-425.15-3.68-543.99-9.61-23.47 63.51 9.32 145.22 9.32 145.22z" clip-rule="evenodd" class="colord1e1ee svgShape"></path><path fill="#1b3f70" fill-rule="evenodd" d="M820.93 2515.14c37.8-1.29 75.5 2.59 113.1 5.93 35.93 3.2 71.65 4.67 107.72 4.39 35.15-.27 70.42-1.01 105.46 2.39 27 2.62 55.51 6.22 78.54 21.62 15.97 10.67 31.26 26.73 35.47 46.05 4.42 20.27-8.14 36.47-25.71 45.08-28.51 13.97-62.68 16.05-93.76 12.59-31.68-3.53-63.88-12.56-92.81-25.98-8.99-4.17-20.25-11.88-30.66-10.42-5.51.77-10.12 4.33-14.09 8.01-5.64 5.24-10.91 11.15-14.82 17.8-2.74 4.66-4.72 9.65-6.46 14.74l374.21 25.55-6.18-172.54c-222.69-5.02-425.15-3.68-543.99-9.61-1.87 5.06-3.35 10.25-4.55 15.5 6.18-.49 12.35-.89 18.53-1.1z" clip-rule="evenodd" opacity=".1" class="color132368 svgShape"></path><path fill="#1b3f70" fill-rule="evenodd" d="m1323.34 2680.58 33.8 2.31-6.18-172.54c-9.25-.21-18.45-.4-27.62-.59v170.82z" clip-rule="evenodd" opacity=".1" class="color132368 svgShape"></path><path fill="#d1ddee" fill-rule="evenodd" d="m2141.98 2651.52-4.09-135.43-677.1 1.98s14.72 164.04 13.17 153.1l668.02-19.65zM1444.03 2672.61l-4.65-153.89-28.88-2.35 19.14 156.68z" clip-rule="evenodd" opacity=".25" class="colord1e1ee svgShape"></path><path fill="#184f9b" fill-rule="evenodd" d="m802.54 2597.07 376.7 22.35-344.18-12.52 53.64 11.62-82.25-2.68z" clip-rule="evenodd" opacity=".35" class="color182b9b svgShape"></path><path fill="#184f9b" fill-rule="evenodd" d="M1054.1 2614.76s-10.81-11.43-20.74-12.96l-7.17.52-14.42 2.68s14.71 1.84 22.08 9.17l20.25.59z" clip-rule="evenodd" class="color182b9b svgShape"></path><linearGradient id="h" x1="1260.707" x2="781.538" y1="2514.032" y2="2752.722" gradientUnits="userSpaceOnUse"><stop offset=".02" stop-color="#d1ddee" class="stopColord1e1ee svgShape"></stop><stop offset=".363" stop-color="#508ee2" class="stopColor50a7e2 svgShape"></stop><stop offset="1" stop-color="#184f9b" class="stopColor182b9b svgShape"></stop></linearGradient><path fill="url(#h)" fill-rule="evenodd" d="M1033.36 2601.8s-22.52-1.71-33.61 38.72c-9.83 35.84-21.83 48.73-21.83 48.73l-30.7-4.62c31.92-47.06 28.35-68.87 64.54-79.63.01 0 13.64-3.29 21.6-3.2z" clip-rule="evenodd"></path><path fill="#184f9b" fill-rule="evenodd" d="m802.3 2520.68 443.54 16.21-325.14-2.72 62.19 9.82-183.88-2.15z" clip-rule="evenodd" opacity=".35" class="color182b9b svgShape"></path><linearGradient id="i" x1="1537.414" x2="1054.671" y1="1984.51" y2="2764.944" gradientUnits="userSpaceOnUse"><stop offset=".02" stop-color="#d1ddee" class="stopColord1e1ee svgShape"></stop><stop offset=".363" stop-color="#508ee2" class="stopColor50a7e2 svgShape"></stop><stop offset="1" stop-color="#184f9b" class="stopColor182b9b svgShape"></stop></linearGradient><path fill="url(#i)" fill-rule="evenodd" d="m923.86 2466.72 3.47-140.17 703.76-12.7-4.23 170.3z" clip-rule="evenodd"></path><path fill="#1b3f70" fill-rule="evenodd" d="M1024.41 2339.1c32.26 14.56 65.32 27.4 99.21 37.63 70.54 21.3 143.84 27.81 217.19 30.75 75.72 3.03 151.68.27 226.91-9.01 20.57-2.54 41.08-5.61 61.5-9.13l1.87-75.49-636.75 11.49c10.01 4.74 20.1 9.26 30.07 13.76z" clip-rule="evenodd" opacity=".1" class="color132368 svgShape"></path><path fill="#184f9b" fill-rule="evenodd" d="M1631.09 2313.85s330.31 10.47 452.53-104.25l-623.49 42.28s-65.46 59.02-532.8 74.68l703.76-12.71z" clip-rule="evenodd" class="color182b9b svgShape"></path><path fill="#d1ddee" fill-rule="evenodd" d="m2077.63 2450.94-450.74 33.2 4.22-170.28c317.37 3.31 444.12-96.84 444.12-96.84 2.9 6.29 5.53 12.79 7.72 19.55 0 0-97.08 62.17-251.72 77.07 7.18-1.7 37.76 6.1 254.43-16.49 19.83 52.8-8.03 153.79-8.03 153.79z" clip-rule="evenodd" class="colord1e1ee svgShape"></path><path fill="#1b3f70" fill-rule="evenodd" d="M2013.08 2428.78c-29.57 2.63-60.77 5.31-90.03-1.02-13.9-3-27.61-7.23-41.88-8.05-15.06-.86-30.47.61-45.42 2.49-28.39 3.57-55.83 11.55-84.02 16.03-12.82 2.04-25.96 3.19-38.93 2.26-11.31-.81-23.72-3.04-32.69-10.48-8.07-6.69-12.43-16.22-15.45-26.03-1.87-6.08-4.6-11.67-6.77-17.62-1.69-4.64-2.86-9.77-.44-14.38 2.18-4.15 6.85-6.9 10.94-8.91 3.1-1.52 6.75-2.41 9.12-5.07 3.27-3.67 3.42-8.2 4.94-12.54 1.36-3.87 5.43-6.32 9.15-7.53 5.13-1.67 10.63-1.69 15.96-1.94 6.38-.3 12.77-.93 19.13-1.53 15.72-1.5 31.38-3.58 46.98-5.99 14.83-2.29 29.53-4.68 43.99-8.77 7.6-2.15 15.21-4.4 22.89-6.23-3.25-.07-5.51-.12-7.09-.07 5.22-.52 10.36-1.1 15.44-1.73 3.46-.62 6.95-1.08 10.47-1.37 138.15-19.09 223.56-73.73 223.56-73.73-2.19-6.76-4.82-13.26-7.72-19.55 0 0-126.75 100.15-444.12 96.84l-4.22 170.28 450.74-33.2s3.87-14.03 7.7-34.35c-23.66 6.11-47.88 10.02-72.23 12.19z" clip-rule="evenodd" opacity=".1" class="color132368 svgShape"></path><path fill="#184f9b" fill-rule="evenodd" d="M1818.65 2354.8s169.63 12.74 272.88-14.08v5.14s-56.77 19.67-105.27 21.68c0 0 30.4-3.35 42.02-9.61.01 0-96.32 8.94-209.63-3.13zM1723.44 2403.97s228.81 17.18 368.09-18.99v6.93s-76.57 26.53-141.99 29.24c0 0 41-4.52 56.68-12.96 0 0-129.93 12.06-282.78-4.22z" clip-rule="evenodd" opacity=".35" class="color182b9b svgShape"></path><path fill="#184f9b" fill-rule="evenodd" d="M1917.91 2358.25s10.81-11.43 20.74-12.96l7.17.52 14.42 2.68s-14.71 1.84-22.08 9.17l-20.25.59z" clip-rule="evenodd" class="color182b9b svgShape"></path><linearGradient id="j" x1="1440.178" x2="961.01" y1="2257.518" y2="2496.209" gradientTransform="matrix(-1 0 0 1 3151.49 0)" gradientUnits="userSpaceOnUse"><stop offset=".02" stop-color="#d1ddee" class="stopColord1e1ee svgShape"></stop><stop offset=".363" stop-color="#508ee2" class="stopColor50a7e2 svgShape"></stop><stop offset="1" stop-color="#184f9b" class="stopColor182b9b svgShape"></stop></linearGradient><path fill="url(#j)" fill-rule="evenodd" d="M1938.66 2345.29s22.52-1.71 33.61 38.72c9.83 35.84 21.83 48.73 21.83 48.73l30.7-4.62c-31.92-47.06-28.35-68.87-64.54-79.63-.01 0-13.64-3.29-21.6-3.2z" clip-rule="evenodd"></path><path fill="#1b3f70" fill-rule="evenodd" d="m2081.84 2451.06-454.98 33.1 4.22-170.31s321.05 1.44 452.53-104.25l4.02 7.74s-132.58 104.81-449.01 103.45l-9.14 160.17 453.85-35.49-1.49 5.59z" clip-rule="evenodd" class="color132368 svgShape"></path><path fill="#1b3f70" fill-rule="evenodd" d="m1638.63 2320.78 8.98.01-3.98 160.5-14.14-.34z" clip-rule="evenodd" opacity=".1" class="color132368 svgShape"></path><path fill="#d1ddee" fill-rule="evenodd" d="m1003.87 2456.73 2.8-112.83 564.02-1.4s-11.52 136.71-10.28 127.59l-556.54-13.36zM1585.34 2471.15l3.18-128.2 24.05-2.09-15.24 130.59z" clip-rule="evenodd" opacity=".25" class="colord1e1ee svgShape"></path><path fill="#ffffff" fill-rule="evenodd" d="m2085.66 2297.16-166.82 2.28s-53.51 11.26-87.62 14.21c.01 0 127.92 2.13 254.44-16.49z" clip-rule="evenodd" class="colorffffff svgShape"></path></g><g fill="#000000" class="color000000 svgShape"><path fill="#4594ff" fill-rule="evenodd" d="M2105.78 851.23s-5.39-9.19-51.08-15.18l3.34-66.44s42.07 1.43 62.44 13.1l-14.7 68.52z" clip-rule="evenodd" class="colorffe245 svgShape"></path><path fill="#3d7cd1" fill-rule="evenodd" d="m2062.84 837.2 2.85-67.2-7.65-.39-3.33 66.44z" clip-rule="evenodd" class="colord1c63d svgShape"></path><path fill="#4594ff" fill-rule="evenodd" d="M894.4 788.53s-5.39-9.19-51.08-15.18l3.34-66.44s42.07 1.43 62.44 13.1l-14.7 68.52z" clip-rule="evenodd" class="colorffe245 svgShape"></path><path fill="#3d7cd1" fill-rule="evenodd" d="m851.46 774.5 2.85-67.2-7.65-.39-3.34 66.44z" clip-rule="evenodd" class="colord1c63d svgShape"></path><path fill="#4594ff" fill-rule="evenodd" d="M1326.15 1108.98s-8.71-6.13-52.78 7.36l-24.5-61.85s38.88-16.13 62.25-13.96l15.03 68.45z" clip-rule="evenodd" class="colorffe245 svgShape"></path><path fill="#3d7cd1" fill-rule="evenodd" d="m1281.25 1114.02-25.26-62.35-7.12 2.82 24.5 61.85z" clip-rule="evenodd" class="colord1c63d svgShape"></path><path fill="#508ee2" fill-rule="evenodd" d="M2055.01 472.81s23.89-30.41 39.8-48.64l-23.05-18.37s-23.43 28.18-39.29 49.04l22.54 17.97z" clip-rule="evenodd" class="color50a7e2 svgShape"></path><path fill="#184f9b" fill-rule="evenodd" d="m2059.31 467.37-4.3 5.44-22.55-17.96 4.02-5.41z" clip-rule="evenodd" opacity=".2" class="color182b9b svgShape"></path><path fill="#508ee2" fill-rule="evenodd" d="M1153.58 707.64s38.63 1.68 62.72 3.96l1.48-29.44s-36.56-2.6-62.75-3.32l-1.45 28.8z" clip-rule="evenodd" class="color50a7e2 svgShape"></path><path fill="#184f9b" fill-rule="evenodd" d="m1160.51 707.97-6.93-.33 1.44-28.79 6.74.11z" clip-rule="evenodd" opacity=".2" class="color182b9b svgShape"></path></g><path fill="#03142b" d="M1987.47 1694.46c-6.81-33.64-18.79-66.2-36.01-95.92-7.96-13.74-17.37-26.49-26.61-39.38-8.4-11.72-16.87-23.4-25.78-34.74-17.26-21.96-36.33-42.95-59.59-58.69-3.47-2.35-7.03-4.5-10.64-6.54-16.99-4.98-33.62-10.97-49.66-17.9a167.87 167.87 0 0 0-21.81-2.47c-1.25-.06-2.11-.62-2.64-1.39-.12 50.5-1.29 100.99-1.34 151.49-.05 47.47.94 94.97 4.92 142.29 3.19 37.92 8.36 75.79 13.45 113.51 5.64 41.76 12.96 86.85 30.23 126.6 25.71-18.81 44.85-47.49 50.64-99.73 11.15-100.4 76.99-91.71 141.61-101.92.42-25.21-1.76-50.44-6.77-75.21zM1270.31 1883.38c9.37-39.41 13.4-80.28 13.22-120.4-.3-67.5-16.16-132.67-36.41-196.55-42.16 15.22-87.57 22.4-131.74 12.32-1.42-.32-2.79-.78-4.2-1.14-16.82 14.06-96.36 111.58-50.07 237.26 101.64 14.34 163.43 20.15 209.2 68.51z" opacity=".55" class="color21032b svgShape"></path><linearGradient id="k" x1="1169.453" x2="1840.766" y1="2003.088" y2="2003.088" gradientUnits="userSpaceOnUse"><stop offset="0" stop-color="#1d4a87" class="stopColor871d5c svgShape"></stop><stop offset=".944" stop-color="#183660" class="stopColor601843 svgShape"></stop></linearGradient><path fill="url(#k)" d="m1169.45 2002.2 39.81-138.45s457.26-52.79 563.2 5.36c28.29 15.53 68.3 109.53 68.3 109.53s-147.99 169.39-323.97 183.69c-286.07 23.25-347.34-160.13-347.34-160.13z"></path><path fill="#03142b" d="m1169.45 2002.2 39.81-138.45s457.26-52.79 563.2 5.36c28.29 15.53 68.3 109.53 68.3 109.53s-147.99 169.39-323.97 183.69c-286.07 23.25-347.34-160.13-347.34-160.13z" opacity=".25" class="color21032b svgShape"></path><path fill="#03142b" d="M1234.43 1959.93c25.52 15.13 50.97 30.24 78.01 42.57 48.87 22.28 101.72 36.07 155.53 37.75 25.58.8 52.11-.51 77.07-6.51 19.4-4.66 37.88-12.59 55.72-21.42 68.24-33.83 140.15-91.67 220.44-75.01-14.05-27.34-33.16-59.65-48.73-68.19-105.94-58.15-563.2-5.36-563.2-5.36l-20.44 71.09c15.59 7.57 30.69 16.24 45.6 25.08z" opacity=".5" class="color21032b svgShape"></path><path fill="#00193b" d="M1275.35 2272.79c-9.88-1.22-16.97-2.61-16.97-2.61s-65.66-30.61-5.99-68.61h.03c3.98-2.52 8.55-5.13 13.72-7.72 22.22-11.15 38.7-17.92 49.66-12.14 13.16 6.94 28.42 65.18 18.31 83.18-6.79 12.13-38.58 10.36-58.76 7.9z" class="color00003b svgShape"></path><path fill="#00193b" d="M1214.18 2182.48s-17.79.54-21.41 6.32c-14.61 23.37.27 100.07 19.73 112.38 9.68 6.13 29.44-8.29 29.44-8.29l-27.76-110.41z" class="color00003b svgShape"></path><path fill="#aaceff" d="m1287.84 2204.77 69.83-24.01s22.56 27.81 16.5 67.75l-77.17 1.09c.01.01-20.55-30.94-9.16-44.83z" class="colorffafaa svgShape"></path><path fill="#3d7cd1" d="M1258.2 2210.63s43.51-31.6 55.77-17.2c12.26 14.4 15.43 49.42 11.2 60.07-4.23 10.65-58.45 3.44-58.45 3.44s-14.16-32.43-8.52-46.31z" class="colord1c63d svgShape"></path><path fill="#3d7cd1" d="M1204.22 2187.87c-12.38 23.84-1.41 94.87 18.65 105.82 20.06 10.95 79.31-18.5 51.87-79.51-11.32-25.15-61.85-43-70.52-26.31z" class="colord1c63d svgShape"></path><path fill="#ffffff" d="M1208.49 2244.04c2.96-11.96 23.95-8.61 35.92 3.2 11.96 11.81-42.8 24.66-35.92-3.2z" opacity=".2" class="colorffffff svgShape"></path><path fill="#326ebf" d="M1313.97 2193.42c-8.59-10.1-32.51 2.4-46.06 10.79-17.78-19.46-56.22-30.72-63.69-16.34-3.77 7.27-5.35 18.94-5.19 31.93 11.34 6.17 23.54 8.89 36.3 11.41 4.05.8 8.2 2.27 11.14 5.3 3.31 3.41 4.63 8.13 5.23 12.72 1.3 9.84-3.65 19.01-13.81 20.97-11.55 2.23-23.21-4.26-33.1-9.46-.05-.03-.11-.06-.16-.09 4.22 15.8 10.55 28.84 18.23 33.03 14.36 7.84 48.8-5.04 57.14-35.37 16.34 1.39 42.29 2.41 45.16-4.83 4.24-10.64 1.06-45.66-11.19-60.06z" opacity=".5" class="colorbfb232 svgShape"></path><linearGradient id="l" x1="1330.474" x2="2148.156" y1="2086.547" y2="2086.547" gradientTransform="rotate(8.811 1800.707 2173.207)" gradientUnits="userSpaceOnUse"><stop offset="0" stop-color="#1d4a87" class="stopColor871d5c svgShape"></stop><stop offset=".944" stop-color="#183660" class="stopColor601843 svgShape"></stop></linearGradient><path fill="url(#l)" d="m1325.72 2167.55 18.83 94.66s758.87 150.47 836.44-274.21c57.34-313.95-855.27 179.55-855.27 179.55z"></path><path fill="#03142b" d="M2104.07 1994.86c-33.72 1.51-66.58 9.79-99.16 18.03-28.88 7.3-58.81 12.55-86.01 25.16-13.81 6.41-25.66 14.88-37.35 24.53-9.08 7.5-18.7 14.52-29.42 19.5-19.79 9.2-40.8 9.22-62 5.89-26.7-4.18-52.85-12.52-80.11-12.4-13.04.06-25.24 2.36-35.67 10.6-9.55 7.54-17.06 17.45-27.6 23.79-25.22 15.17-57.43 12.26-83.51 1.35-20.28-8.49-38.38-21.39-55.26-35.55-106.47 50.81-182.27 91.79-182.27 91.79l18.83 94.66s741.1 146.88 833.34-259.59c-24.52-4.42-49.06-8.87-73.81-7.76z" opacity=".25" class="color21032b svgShape"></path><path fill="#ffffff" d="M1721.52 2022.73s321.28-158.22 406.3-99.79c85.02 58.42-387.84 120.75-406.3 99.79z" opacity=".1" class="colorffffff svgShape"></path><path fill="#03142b" d="M2119.67 2067.27c-26.06-.86-52.21-.5-78.18 1.93-23.87 2.24-48.12 6.04-70.64 14.57-9.31 3.53-18.41 7.96-26.39 13.97-9.84 7.41-17.23 17.41-22.05 28.71-11.43 26.79-10.37 57.19-14.38 85.56-1.92 13.65-4.86 27.37-10.85 39.87a74.226 74.226 0 0 1-3.58 6.58c112.97-29.9 212.42-86.78 261.43-189.24-11.77-.91-23.57-1.55-35.36-1.95z" opacity=".25" class="color21032b svgShape"></path><path fill="#00193b" d="M1715.43 2277.6c9.86-1.37 16.93-2.87 16.93-2.87s65.17-31.64 4.91-68.7h-.03c-4.02-2.46-8.63-5-13.84-7.5-22.39-10.8-38.98-17.31-49.85-11.36-13.05 7.15-27.4 65.61-17.01 83.46 6.98 12 38.74 9.74 58.89 6.97z" class="color00003b svgShape"></path><path fill="#00193b" d="M1775.18 2186.34s17.8.26 21.5 5.99c14.98 23.14 1.3 100.06-17.97 112.68-9.59 6.28-29.56-7.83-29.56-7.83l26.03-110.84z" class="color00003b svgShape"></path><path fill="#aaceff" d="m1701.87 2209.78-70.19-22.92s-22.12 28.16-15.44 68l77.17-.11s20.07-31.26 8.46-44.97z" class="colorffafaa svgShape"></path><path fill="#3d7cd1" d="M1731.6 2215.17s-44-30.92-56.03-16.33c-12.03 14.59-14.65 49.65-10.26 60.24 4.39 10.58 58.5 2.52 58.5 2.52s13.65-32.64 7.79-46.43z" class="colord1c63d svgShape"></path><path fill="#3d7cd1" d="M1785.22 2191.58c12.75 23.64 2.9 94.83-16.99 106.1-19.89 11.26-79.59-17.26-53.1-78.69 10.92-25.33 61.16-43.97 70.09-27.41z" class="colord1c63d svgShape"></path><path fill="#ffffff" d="M1688.69 2201.51c-.65-4.34 31.64 8.64 31.58 12.28s-30.07-2.11-31.58-12.28zM1730.64 2216.09c-1-12.28 26.38-33.99 41.47-26.6s-39.14 55.21-41.47 26.6z" opacity=".2" class="colorffffff svgShape"></path><path fill="#326ebf" d="M1785.22 2191.58c-1.32-2.46-3.6-4.09-6.48-5.09 3.1 7.76 4.79 16.13 5.33 24.4 1.34 20.46-4.67 45.65-26.14 53.42-11.11 4.02-23.02 2.28-31.22-6.54-5.82-6.26-9.26-14.33-11.6-22.58-9.45 11.49-26.16 18.64-40.31 14.25-4.53-1.41-8.24-3.95-11.44-7.09-.15 7.15.52 13.27 1.96 16.74 2.99 7.19 28.92 5.77 45.23 4.12 8.82 30.2 43.45 42.53 57.69 34.47 19.88-11.27 29.74-82.46 16.98-106.1z" opacity=".5" class="colorbfb232 svgShape"></path><linearGradient id="m" x1="1325.497" x2="2143.14" y1="2068.256" y2="2068.256" gradientTransform="scale(-1 1) rotate(9.718 119.92 -15382.597)" gradientUnits="userSpaceOnUse"><stop offset="0" stop-color="#1d4a87" class="stopColor871d5c svgShape"></stop><stop offset=".944" stop-color="#183660" class="stopColor601843 svgShape"></stop></linearGradient><path fill="url(#m)" d="m1663.42 2173.15-17.35 94.94S889.65 2430.41 805.45 2007c-62.25-313.01 857.97 166.15 857.97 166.15z"></path><path fill="#ffffff" d="M842.98 1960.86c-13.17 39.86 193.13 68.51 246.96 43.88 53.83-24.64-221.87-119.83-246.96-43.88zM1115.23 2041.22c-27.41 58.84 140.31 88.44 166.32 54.96 26.01-33.48 98.88 26.6 180.52 42.55 81.64 15.95-287.15-225.64-346.84-97.51z" opacity=".1" class="colorffffff svgShape"></path><path fill="#03142b" d="M828.41 2039.79c40.39-12.85 84.1-13.3 125.59-5.93 19.9 3.54 39.48 8.92 58.42 15.99 17.27 6.45 35.49 13.84 50.36 24.97 23.75 17.78 37.11 44.74 51.27 70.01 11.68 20.85 25.56 43.34 49.65 51.03 15.1 4.82 31.99 3.31 47.27.21 20.67-4.2 40.18-12.66 59.42-21.07 19.82-8.66 39.78-17.75 61.04-22.27 18.33-3.9 38.65-4.63 54.34 7.21 11.87 8.96 19 22.6 27.63 34.38 9.76 13.32 21.91 23.82 36.31 31.9 31.67 17.77 70.56 23.99 106.4 19.3 17-2.23 33.91-7.22 48.79-15.87 15.42-8.97 28.49-21.53 39.99-35.05 6.07-7.14 11.73-14.57 17.12-22.18.94.48 1.42.74 1.42.74l-17.35 94.94s-710.45 152.46-830.95-223.54c4.36-1.75 8.79-3.34 13.28-4.77z" opacity=".25" class="color21032b svgShape"></path><path fill="#03142b" d="M1593.62 2261.76c-14.67 4.06-29.74 6.71-44.74 9.2-17.84 2.96-35.85 5.18-53.95 5.27-18.07.09-36.08-1.94-53.69-5.98-17.04-3.91-32.37-11.24-47.57-19.71-15.08-8.41-30.28-17.51-47.39-21.04-17.15-3.54-34.82-1.89-51.82 1.68-33.54 7.05-66.7 22.9-101.59 20.63-33.72-2.2-62.54-22.57-91.5-37.9-17.45-9.24-35.11-18.08-52.29-27.83-15.84-9-30.55-19.46-45.8-29.36-24.07-15.64-49.84-26.5-78.94-26.54-19.44-.03-39.58 2.93-57.13 11.28 202.45 250.29 778.86 126.66 778.86 126.66l7.9-43.23c-15.54 18.75-36.74 30.34-60.35 36.87z" opacity=".25" class="color21032b svgShape"></path><path fill="#183660" d="m1482.53 2085.27 180.89 87.89c0-.01-87.48-67.83-180.89-87.89z" class="color601843 svgShape"></path><path fill="#aaceff" d="M1854.27 1502.12s144.82 215.89 77.78 285.62c-39.81 41.41-85.83 15.74-126.5-40.75-51.49-71.52-84.23-142.97-84.23-142.97l132.95-101.9z" class="colorffafaa svgShape"></path><path fill="#ffffff" d="M1867.57 1713.88s24.58 29.95 41.68 14.19-23.91-22.91-35.31-26.93c-11.4-4.02-12.07 6.03-6.37 12.74z" opacity=".1" class="colorffffff svgShape"></path><g opacity=".25" fill="#000000" class="color000000 svgShape"><path fill="#8aaddd" d="M1904.64 1589.91a868.675 868.675 0 0 0-21.1-39.6c-6.6 2.12-13.1 4.53-19.29 7.72-14.72 7.58-23.57 19.22-27.72 35.21-3.87 14.9-3.84 30.35-5.33 45.57-.67 6.86-1.93 13.65-2.55 20.52-.64 6.96-1.35 15.1 1.54 21.68 4.71 10.74 21.98 5.97 30.98 5.59 7.99-.33 16.07 1.38 23.8 3.25 7.8 1.88 16.07 3.92 23.28 7.52 2.03 1.01 5.42 3.68 7.79 3.62 2.78-.06 3.58-3.64 4.13-6.01 1.71-7.44-.59-15.65-3.73-22.39-6.69-14.36-23.75-17.7-32.8-30.02-8.58-11.68-6.88-25.43.46-37.31 4.84-7.85 12.21-14.17 20.54-15.35z" class="colordd8a8a svgShape"></path></g><g opacity=".25" fill="#000000" class="color000000 svgShape"><path fill="#8aaddd" d="M1923.83 1719.47c2.28 6.8 2.42 14.72.87 20.72-2.79 10.84-13.24 16.13-23.3 10.28-3.35-1.95-6.23-4.65-9.66-6.47-3.58-1.9-5.72-1.64-7.56 2.08-1.57 3.18-2.26 6.71-3.91 9.86-1.65 3.15-4.29 6.02-7.13 8.13-11.86 8.83-30.17 7.23-43.8 4.37-2.88-.6-5.8-1.37-8.71-2.24 36.7 42.52 76.44 57.89 111.39 21.54 15.99-16.63 19.84-41.62 16.57-69.97-6.93 4-16.31 3.96-24.76 1.7z" class="colordd8a8a svgShape"></path></g><path fill="#8aaddd" d="M1857.28 1692.2s30.51-5.36 55.65 11.73c0 0-18.1-25.81-55.65-11.73z" class="colordd8a8a svgShape"></path><g opacity=".25" fill="#000000" class="color000000 svgShape"><path fill="#8aaddd" d="M1863.69 1628.48c5.13-22.6 12.33-46.23 27.75-63.94-4.08-7.52-8.04-14.56-11.78-21.04-19.17 10.89-36.24 25.45-51.89 40.94.74 8.79.77 17.66.37 26.48-.77 16.62-3.6 33.09-4.12 49.71-.23 7.27.12 15.05 3.16 21.78 2.68 5.92 9.16 13.49 16.2 13.71 3.39.11 6.61-1.4 9.73-2.52 3.49-1.25 7.04-1.95 10.74-2.18 7.88-.48 15.71.8 23.41 2.34 5.82 1.17 10.74 3.09 16.13 5.56 2.8 1.28 8.11 4.47 12.28 5.11-3.95-12.06-16.3-18.31-28.4-20.96-8.57-1.88-21.23 2.15-24.77-8.74-2.21-6.81-1.9-15.2-1.87-22.31.03-8.11 1.27-16.03 3.06-23.94z" class="colordd8a8a svgShape"></path></g><path fill="#aaceff" d="M1165.69 1467.92s-156.16 284.13-74.42 330.55c108.62 61.68 186.88-227.27 186.88-227.27l-112.46-103.28z" class="colorffafaa svgShape"></path><path fill="#8aaddd" d="M1141.88 1647.61s11.06-33.52 26.15-41.57c0 0-31.84 13.08-26.15 41.57z" class="colordd8a8a svgShape"></path><linearGradient id="n" x1="1347.243" x2="1663.604" y1="1131.391" y2="2106.196" gradientUnits="userSpaceOnUse"><stop offset="0" stop-color="#4594ff" class="stopColorffe245 svgShape"></stop><stop offset=".526" stop-color="#005ede" class="stopColorde007b svgShape"></stop><stop offset="1" stop-color="#2777e3" class="stopColore38427 svgShape"></stop></linearGradient><path fill="url(#n)" d="M1618.69 1218.5c-24.55-17.27-52.11-29.64-83.12-35.72-46.31-9.09-86.65.69-121.84 23.89-27.86 6.33-204.22 56.65-303.27 332.86 0 0 67.03 50.14 113.86 62.04-26.77 128-38.3 250.58-42.73 310.65 5.62 3.02 11.45 5.62 17.29 7.85 19.43 7.44 40.27 11.57 61.02 12.76 30.03 1.72 59.74 5.62 89.59 9.19 15.56 1.86 31.14 3.51 46.78 4.45 16.02.96 32.05.81 48.09.89 65.59.34 131.27 1.81 196.76-2.68 22.92-1.57 45.97-3.15 68.74-6.33 19.16-2.67 38.42-6.58 56.33-14.11 16.45-6.92 31.61-17.25 41.94-32.02 2.29-3.27 4.28-6.69 6.02-10.21-.11-68.71-3.64-170.23-19.27-274.89 50.94-24.15 100.96-76.58 100.96-76.58-85.04-209.46-223.41-288.32-277.15-312.04z"></path><path fill="#17417a" d="M1415.07 1211.69s-40.87 50.96-48.02 83.14c0 0-.51-50.06 48.02-83.14zM1613.79 1219.74s40.87 50.96 48.02 83.14c0-.01.51-50.07-48.02-83.14z" enable-background="new" opacity=".5" class="color7a1752 svgShape"></path><path fill="#ffffff" d="M1429.64 1305.58c106.73 57.69 132.69-20.91 173.8 3.61s-10.77 76.69-70.67 87.26c-66.93 11.81-87.98-5.77-112.5-36.06s-2.86-61.42 9.37-54.81zM1748.06 1337.09c7.89-11.36-60.48-76.3-74.39-69.68-25.05 11.9 62.3 87.07 74.39 69.68zM1787.71 1388.8c7.41-13.86-18.56-44.89-31.33-32.7s25.03 44.48 31.33 32.7zM1218.21 1374.28c-13.42-16.93 118-140.35 140.35-131.41 40.23 16.09-119.79 157.34-140.35 131.41zM1185.13 1429.71c-10.26-16.57 19.44-56.99 36.21-42.91 16.76 14.08-27.49 56.99-36.21 42.91z" opacity=".2" class="colorffffff svgShape"></path><path fill="#17417a" d="M1256.12 1610.93c-2.31-12.08-2.65-24.49-1.61-36.73 1.05-12.33 3.68-24.31 7.01-36.2 7.28-26 21.95-50.78 21.46-78.44-1.52 2.24-3.03 4.49-4.52 6.75-6.54 9.87-12.96 19.88-20.55 28.99-7.44 8.93-16.06 16.76-25.91 22.95-11.32 7.12-23.56 12.05-36.86 13.75-6.09.78-12.23 1.03-18.36 1.26-6.25.23-12.57.15-18.63 1.9-9.54 2.75-16.52 9.5-22.71 16.95-4.06 4.89-8 9.91-12.49 14.38 27.74 20.17 94.63 65.35 127.28 57.5 2.33-.56 4.91-2.35 7.72-5.23-.71-2.58-1.32-5.19-1.83-7.83z" enable-background="new" opacity=".25" class="color7a1752 svgShape"></path><path fill="#17417a" d="M1198.88 1920.06c19.43 7.44 40.27 11.57 61.02 12.76 30.03 1.72 59.74 5.62 89.59 9.19 15.56 1.86 31.14 3.51 46.78 4.45 16.02.96 32.05.81 48.09.89 65.59.34 131.27 1.81 196.76-2.68 22.92-1.57 45.97-3.15 68.74-6.33 19.16-2.67 38.42-6.58 56.33-14.11 16.45-6.92 31.61-17.25 41.94-32.02 2.29-3.28 4.29-6.7 6.03-10.22-.18-121.44-11.08-345.33-80.6-508.01-15.84 1.11-31.68 2.6-47.5 3.64-23.38 1.53-46.83 3.84-69.56 9.45-22.61 5.58-43.24 15.15-62.96 26.93-16.24 9.71-34.3 21.75-54.52 19.3-21.3-2.58-34.46-19.38-51.24-30.06-18.24-11.63-43.11-11.51-64.24-10.99-11.22.28-22.42 1.08-33.62 1.77-8.99.56-18.01.75-26.96 1.84-14.95 1.81-29.73 5.38-43.74 10.74-67.83 179.52-90.91 414.49-97.63 505.61 5.62 3.02 11.45 5.62 17.29 7.85z" enable-background="new" opacity=".2" class="color7a1752 svgShape"></path><path fill="#17417a" d="M1470.21 1921.41s104.38 5.36 255.68-56.32c0 0-12.9 33.97-107.9 60.79-95.01 26.81-147.78-4.47-147.78-4.47zM1225.97 1891.38s62.58-39.33 179.69-18.77c0 0-129.62-59.89-179.69 18.77z" enable-background="new" opacity=".5" class="color7a1752 svgShape"></path><path fill="#17417a" d="M1242.46 1852.1c25.52-3.22 50.74-8.34 75.64-14.5 23.32-5.77 47.1-11.75 69.59-20.05 21.73-8.02 43.38-19.03 66.81-21.7 5.45-.62 10.83-.87 16.12.69 5.44 1.6 10.5 4.42 16.22 5.09 13.21 1.55 24.85-4.56 37.61-6.23 22.32-2.92 43.81 11.64 63.32 19.75 12.96 5.39 26.95 9.16 40.55 12.77 13.99 3.72 28.15 6.81 42.45 9.26 47.23 8.1 95.28 8.95 142.94 4.81-2.4-117.98-15.78-296.43-68.46-438.57-35.23-2.55-71.05 1.76-105.2 9.89-35.43 8.43-69.62 21.57-103.03 35.46-8.45 3.51-16.86 7.1-25.25 10.73-7.51 3.25-15.03 7.51-22.92 9.8-6.96 2.02-13.52.34-19.33-3.64-6.59-4.52-12.38-9.64-19.5-13.44-27.89-14.88-58.86-24.91-90.2-30.65-27.83-5.1-56.51-6.92-84.71-3.86-53.64 147.68-78.11 329.26-88.65 437.81 18.73.2 37.52-1.09 56-3.42zM1432.08 1202.93c-.81 11.41 13.71 99.74 89.69 88.7 74.5-10.83 62.63-73.49 63.39-84.28.18-2.53.04-5.06-.26-7.59a206.633 206.633 0 0 0-49.34-16.82c-38.16-7.86-72.29-2.33-102.81 13.46-.27 2.18-.51 4.35-.67 6.53z" enable-background="new" opacity=".25" class="color7a1752 svgShape"></path><path fill="#17417a" d="M1198.88 1920.06c19.43 7.44 40.27 11.57 61.02 12.76 30.03 1.72 59.74 5.62 89.59 9.19 15.56 1.86 31.14 3.51 46.78 4.45 16.02.96 32.05.81 48.09.89 65.59.34 131.27 1.81 196.76-2.68 22.92-1.57 45.97-3.15 68.74-6.33 19.16-2.67 38.42-6.58 56.33-14.11 16.45-6.92 31.61-17.25 41.94-32.02 2.29-3.28 4.29-6.7 6.03-10.23-.04-28.74-.68-63.22-2.56-101.27-.62.12-1.23.32-1.85.44-43.34 8.13-88.87.61-131.03-9.88-21-5.22-41.68-11.56-62.16-18.38-22.84-7.62-46.13-12.67-70.18-15.33-24.69-2.73-49.62-3.31-74.44-2.42-11.76.42-23.61 1.03-35.31 2.33-8.3.93-17.23 2.04-24.74 5.75-17.68 8.74-.99 28.89 9.3 36.48 14.67 10.83 32.76 17.03 50.23 22.43 15.45 4.78 31.04 9.35 46.68 13.53 17.12 4.58 34.45 8.98 50.68 16.03 14.68 6.38 30.05 15.46 36.42 30.33 2.74 6.4 3.42 13.45-.1 19.7-3.41 6.04-9.77 10.03-16.21 12.71-16.9 7.03-36.94 8.16-55.1 8.6-23.86.58-47.66-2.03-71.18-5.67-48.12-7.44-95.98-19.35-145.05-18.69-24.24.32-48.28 3.93-70.91 12.36-19.84 7.39-38.63 17.13-58.48 24.48 3.54 1.67 7.12 3.18 10.71 4.55z" enable-background="new" opacity=".25" class="color7a1752 svgShape"></path><path fill="#d1ddee" d="m1875.28 1497.37-349.93 41.08-1.98 10.65c3.14 16.13-16.78 11.64-16.78 11.64l-34.65-18.55-6.21.43c-136.96-96.74-304.53-55.33-307.43-54.55-1.13.3.64-3.15 3.3-7.56.75-1.29 1.57-2.67 2.5-4.08 1.18-1.93 2.41-3.89 3.56-5.67 2.86-4.37 5.19-7.82 5.19-7.82 35.74-8.66 93.17-15.02 93.17-15.02l-69.91-4.5c232.09-19.78 292.15 86.08 292.15 86.08 4.24 6.47 8.48 12.94 12.73 19.41-2.15-3.39-2.23-7.78-1.08-11.62 1.15-3.84 3.41-7.25 5.72-10.53 26.63-37.66 65.65-65.96 108.6-82.25 34.38-13.04 71.46-17.55 108.06-15.44 30.06 1.73 59.83 7.75 88.48 16.95 15.93 5.11 31.73 11.1 46.71 18.59.68.34 1.81 1.24 2.57 1.31-21.76-2.22-41.89 5.22-41.89 5.22l42.03 3.08 8.26 12.68 6.83 10.47z" class="colord1e1ee svgShape"></path><path fill="#508ee2" d="m1875.28 1497.37-348.86 48.14-25.43 3.45c1.51-2.07 60.46-77.29 134.73-98.64 0 0-72.11 40.15-94.44 63.78 3.6-3.16 62.85-54.34 153.41-62.75-5.83 1.11-99.26 19.71-149.21 68.99 7.09-5.17 136.96-97.28 322.96-33.44l6.84 10.47z" opacity=".35" class="color50a7e2 svgShape"></path><path fill="#508ee2" d="m1502.88 1549.39-30.95-7.21-6.21.43c-136.96-96.74-304.53-55.33-307.43-54.55-1.13.3.64-3.15 3.3-7.56 31.34-7.54 78.39-13.02 81.89-13.45-32.7-1.09-65.46 5.88-79.4 9.36 1.18-1.93 2.41-3.89 3.56-5.67 125.86-36.1 270.59 34.04 276.02 36.69-55.65-38.57-129.88-54.45-129.88-54.45 101.72 10.74 189.1 96.41 189.1 96.41z" opacity=".35" class="color50a7e2 svgShape"></path><path fill="#1b3f70" d="m1466.54 1538.21-.15 8.5-.09 5.4-.31 19.46-.14 8.97-3.08 194.37-.15 12.03-.16 8.81c33.87 26.29 56.68.7 56.68.7l.19-8.96.32-11.03 4.67-195.25.26-9.61.42-18.16.13-5.08.21-9.92c-18.3 19.84-58.8-.23-58.8-.23z" class="color132368 svgShape"></path><path fill="#03142b" d="M1522.88 1616.32c-3.8 23.79-9.11 47.27-16.7 70.14-2.3 6.94-5.18 15.19-11.83 19.15-6.39 3.81-14.1 1.84-20.2-1.6-3.75-2.11-7.08-4.85-10.12-7.95l-1.25 78.84-.15 12.03-.16 8.81c33.87 26.29 56.68.7 56.68.7l.19-8.96.32-11.03 3.95-165.23c-.26 1.71-.46 3.41-.73 5.1z" opacity=".2" class="color21032b svgShape"></path><linearGradient id="o" x1="1156.311" x2="1612.038" y1="1507.362" y2="1936.814" gradientTransform="rotate(10.549 1515.102 1508.169)" gradientUnits="userSpaceOnUse"><stop offset=".008" stop-color="#133768" class="stopColor132368 svgShape"></stop><stop offset="1" stop-color="#03142b" class="stopColor21032b svgShape"></stop></linearGradient><path fill="url(#o)" d="m1462.47 1795.74-231.9 58.74-90.08-361.11c169.35-55.07 308.2 32.88 324.46 43.77 1.05.66 1.59 1.06 1.59 1.06l-.13 8.35-.03.15-3.86 245.16-.05 3.88z"></path><g opacity=".35" fill="#000000" class="color000000 svgShape"><path fill="#03142b" d="M1445.73 1740.26c-11.2 20.97-27.16 36.78-49.23 45.97-20.57 8.56-43.04 11.66-65.17 12.56-19.16.79-41.66.81-58.2-10.4-8.09-5.48-13.4-13.69-15.87-23.08-2.73-10.35-1.06-18.95 4.36-27.97 4.84-8.05 9.15-16.39 1.72-24.2-5.44-5.72-12.83-10.38-12.64-19.29.09-4.09 2.22-7.08 4.85-10 2.97-3.29 6.12-7.14 3.25-11.58-4.35-6.73-14.05-8.65-14.14-18.11-.03-3.62 1.73-5.37 3.57-8.16 1.9-2.88-.85-6.17-3.11-8.31-6.44-6.09-16.2-7.78-24.69-8.55-15.3-1.39-30.46.71-45.7 1.54l55.83 223.8 231.9-58.74.06-3.87 1.66-105.24c-3.94 18.58-9.47 36.81-18.45 53.63z" class="color21032b svgShape"></path></g><linearGradient id="p" x1="1958.539" x2="1431.238" y1="1453.942" y2="1860.743" gradientTransform="rotate(10.549 1515.102 1508.169)" gradientUnits="userSpaceOnUse"><stop offset=".008" stop-color="#133768" class="stopColor132368 svgShape"></stop><stop offset="1" stop-color="#03142b" class="stopColor21032b svgShape"></stop></linearGradient><path fill="url(#p)" d="m1884.79 1501.69-.13.44-117.92 355.54s-155.62-41.32-247.59-61.22l.06-3.36 6.02-250.17.12-4.47s181.98-121.48 359.44-36.76z"></path><path fill="#1b3f70" d="M1594.12 1557.1c-27.63 16.5-36.21 77.78-4.02 100.57s168.96 29.5 183.71 8.05 52.3-101.91 24.14-118c-28.16-16.1-113.98-44.26-203.83 9.38z" class="color132368 svgShape"></path><path fill="#03142b" d="M1797.95 1547.71c-2.94-1.68-6.53-3.49-10.66-5.32.2 10.58-.34 21.25-5.77 30.43-8.8 14.89-25.91 18.1-41.86 18.14-11.93.03-31.47-3.42-37.75 9.94-2.86 6.08-3.77 12.85-7.01 18.8-3.64 6.68-10.13 11.17-17.02 14.07-14.97 6.31-33 6.1-48.99 6.25-14.07.13-28.17-.29-42.18-1.67-4.17-.41-8.34-.94-12.5-1.53 3.35 8.28 8.5 15.6 15.89 20.83 32.18 22.8 168.96 29.5 183.71 8.05 14.75-21.44 52.3-101.9 24.14-117.99z" opacity=".2" class="color21032b svgShape"></path><g opacity=".35" fill="#000000" class="color000000 svgShape"><path fill="#03142b" d="M1837.82 1635.08c-.74-7.04-.53-14.15-1.27-21.19-.19-1.81-.53-10.54-2.81-11.24-2.25-.7-7.4 5.44-8.65 6.75-3.38 3.56-6.52 7.74-11.05 9.92-7.82 3.76-16.31-1.83-23.7-4.16-5.27-1.66-14.41-4.26-19.57-.77-2.02 1.37-2.33 4.47-3.42 6.67-4.54 9.2-12.8 14.18-21.78 18.35-3.98 1.84-8.31 3.63-11.35 6.91-3.65 3.94-4.5 9.83-4.05 15.01.84 9.58 8.41 15.88 13.4 23.46 5.94 9.02 8.73 19.38 5.97 29.99-2.73 10.46-9.08 19.35-9.08 30.51 0 9.15 1.38 18.23 1.96 27.35.48 7.64.64 15.65-2.16 22.92-2.88 7.49-8.77 12.95-15.94 16.37-21.82 10.41-49.52 7.92-71.91.9-24.56-7.7-46.63-21.56-68.59-34.64-11.57-6.89-23.43-13.17-34.29-21.17-9.47-6.97-18.71-14.94-28.94-20.98l-1.37 57.05-.06 3.36c91.97 19.9 247.59 61.22 247.59 61.22l71.93-216.87c-.36-1.89-.65-3.79-.86-5.72z" class="color21032b svgShape"></path></g><path fill="#aaceff" d="M1825.45 1748.19s-50.98 6.98-41.6-41.34c0 0-8.31-12.76-24.47-31.53-4.37-5.07-16.24-4.06-20.96-10.81-1.82-2.61 12.63-21.92 47.89 14.02 0 0-14.18-23.71-35.27-35.95-21.09-12.23 16.26-24.16 53.68 17.47 0 0-39.66-42.43-31.42-46.28 11.45-5.35 50.44 36.3 50.44 36.3s10.25-63.07 20-61.21c9.75 1.86 4.77 62.37 5.31 86.42.54 24.05 7.11 27.93 5.62 37.23-1.83 11.4-29.22 35.68-29.22 35.68z" class="colorffafaa svgShape"></path><path fill="#8aaddd" d="M1849.35 1685.38s6.26 29.05-8.94 40.23c0 0 25.48-14.75 8.94-40.23z" class="colordd8a8a svgShape"></path><path fill="#6393d4" d="M1757.34 1673.52s6.63-.88 7.13-3.38c0 0-.75 4.13-4.26 5.38l-2.87-2z" opacity=".35" class="colord47c63 svgShape"></path><path fill="#8aaddd" d="M1796.29 1721.97c-.96-5.75-1.51-11.82-4.08-17.14-.94-1.95-2.17-3.75-3.48-5.5a76.206 76.206 0 0 0-10.17-5.7c-2.04-.94-4.29-2.06-6.58-2.95 7.79 9.97 11.86 16.16 11.86 16.16-5.28 27.21 8.58 36.88 21.7 40.14-1.78-2.66-3.38-5.46-4.65-8.5-2.21-5.26-3.66-10.88-4.6-16.51z" opacity=".25" class="colordd8a8a svgShape"></path><path fill="#ffffff" d="m1781 1616.7-3.5 4.88s-5.86-5.28-3.65-6.7c2.2-1.42 7.15 1.82 7.15 1.82zM1755.65 1633.4l-3.09 6.3s-5.26-.8-5.58-3.93c-.32-3.12 8.67-2.37 8.67-2.37zM1745.63 1659.11l-.56 6.78s-6.2-1.49-5.26-3.5c.96-2.02 5.82-3.28 5.82-3.28zM1846.01 1599.08c-4.05-.7-5.1-.51-6.04-1.77-.93-1.25 2.8-8.42 4.48-7.41 1.68 1.02 2.21 9.29 1.56 9.18z" opacity=".2" class="colorffffff svgShape"></path><path fill="#aaceff" d="M1157.32 1639.85s-131.41 108.74-66.95 159.96c67.13 53.34 113.28-80.72 113.28-80.72l-46.33-79.24z" class="colorffafaa svgShape"></path><path fill="#8aaddd" d="M1151.27 1698.32c.88 8.43 1.87 16.86 2.25 25.34 1.03 23.15-1.96 53.68-29.62 58.99-3.52.68-7.54 1.16-11.11.72-3.9-.48-7.31-3.23-11.1-3.67-3.93-.45-5.92 5.5-7.77 8.4-2.16 3.38-4.6 5.79-8.23 7.47 1.45 1.44 2.96 2.87 4.68 4.24 53.65 42.63 93.87-34.39 107.87-67.05-10.55-1.33-20.21-5.69-28.52-13.07-7.08-6.29-12.86-13.76-18.45-21.37z" opacity=".25" class="colordd8a8a svgShape"></path><path fill="#8aaddd" d="M1095.32 1706.93s22.63-31.69 42.66-47.77c0 0-5.99 13.56-.45 19.02 0 0-4.06 11.36 5.25 17.59 0 0-4.98-18.19-.89-22.52 0 0-4.46-8.3 1.24-21.82.02.01-31.52 23.47-47.81 55.5z" class="colordd8a8a svgShape"></path><path fill="#aaceff" d="M1219.52 1714.46s35.46-2.46 35.31-15.69c-.14-12.3-26.49-10.34-35.31-10.06 10.05-.69 34.83-6.79 33.21-19.77-1.53-12.28-41.54-12.78-41.54-12.78s34.68-5.06 33.4-19.04c-1.57-17.05-58.23-13.01-78.14-11.67-14.75.99-31.46 19.75-22.59 32.9 0 0-9.46 1.83-4.7 17.42 1.77 5.81 6.12 12.31 8.14 14.35-4.71 3.12-12.17 9.89-8.96 21.24 2.97 10.47 17.35 8.07 17.35 8.07s-11.37 11.67 1 21.05c18.37 13.93 101.73 2.28 95.54-14.27-4.12-11.02-32.71-11.75-32.71-11.75z" class="colorffafaa svgShape"></path><path fill="#8aaddd" d="M1210.16 1655.86s-38.57 1.21-51.19 1.39c.01 0 32.95 5.27 51.19-1.39zM1221.66 1688.68s-38.57 1.21-51.19 1.39c0 0 32.95 5.26 51.19-1.39zM1223.87 1713.28s-38.57 1.21-51.19 1.39c0 0 32.95 5.27 51.19-1.39z" class="colordd8a8a svgShape"></path><path fill="#8aaddd" d="M1203.03 1739.75c14.15-2.77 26.07.6 39.63-2.48-21.59 9.67-72.15 13.67-85.97 3.19-12.37-9.38-1-21.05-1-21.05s-14.38 2.4-17.35-8.07c-1.97-6.93-.1-12.19 2.66-16.06 1.96.92-.31 24.15 22.51 18.2-.73 22.05 19.87 30.12 39.52 26.27z" class="colordd8a8a svgShape"></path><path fill="#ffffff" d="m1226.62 1631.98 3.02 13.15s12.13-2.31 12.19-7.7c.06-5.39-15.21-5.45-15.21-5.45zM1234.43 1664.12s-1.27 11.71 1.78 12.65c3.05.94 11.41-1.3 11.43-6.53.03-5.22-11.99-6.91-13.21-6.12zM1240.47 1692.09s-3.28 8.61.9 13.26c0 0 11.78-.05 11.46-6.24-.32-6.18-12.36-7.02-12.36-7.02zM1240.04 1721.82s-2.18 6.07 1.34 11.95c0 0 8.3-.71 7.91-6.38-.39-5.72-9.25-5.57-9.25-5.57z" opacity=".2" class="colorffffff svgShape"></path><path fill="#ffffff" d="M1086.46 1755.78c10.89 16.5 55.47-38.71 44.54-64.4-10.93-25.68-54.1 49.92-44.54 64.4zM1166.18 1638.42c3.88 2.51 50.5-3.22 48.94-8.79-1.56-5.57-63.98-.96-48.94 8.79z" opacity=".1" class="colorffffff svgShape"></path><path fill="#03142b" d="M1612.55 1154.46c7.09.72 13.98 3.02 21.11 3.4 6.41.34 9.79-2.46 11.07-8.79 2.03-9.99-1.01-20.16-2.56-29.99-1.29-8.18-2.47-17.93 2.81-25.02 4.81-6.45 16.59-9.91 17.95-18.46 1.38-8.7-10.23-16.84-15.37-22.29-12.66-13.4-16.23-29.81-16.3-47.71-.01-2.18 1.51-3.17 3.18-3.23.64-3.76 1.4-7.48 1.73-10.94 1.33-13.99-3.24-28.57-12.01-38.33-10.18-11.31-24.27-15.38-37.17-20.74-19.93-8.29-34.7-27.05-54.74-35.34a61.254 61.254 0 0 0-8.92-2.92c-13.37-3.27-28.39-2.05-38.62 8.75-1.04 1.1-1.67 2.48-2.13 3.97-.03-.02-.07-.05-.1-.06-8.69-6.21-19.34-8.74-29.43-7.69-7.83.84-15.97 3.9-20.75 11.11-2.41 3.63-3.82 8-6.14 11.63-2.96 4.63-6.91 7.47-11.37 9.58-10.87 5-24.7 5.26-34.39 13.42-6.96 5.79-11.06 15.26-13.1 24.89-2.05 9.95-2.14 20.42-.23 30.42 2.05 10.53 6.19 20.26 9.28 30.42s5.05 21.26 2.55 31.63c-1.68 7.11-5.37 13.26-8.55 19.74-.59 1.21-1.18 2.42-1.73 3.68-3.23 7.37-5.32 15.68-4.82 23.95.09 1.58.27 3.21.64 4.74 1.23 6.63 4.28 12.79 8.96 16.74.73.63 1.5 1.16 2.28 1.63 5.23 3.47 11.56 4.79 16.97 7.84 1.91 1 3.68 2.26 5.28 3.89 4.14 4.21 6.55 10.42 11.1 13.95 5.14 3.95 11.87 3.63 17.83 1.79.27-.11.59-.21.86-.26 5.6-1.89 10.96-4.79 16.7-6.11 4.5-1 9.19-.95 13.69.21 3.46.79 6.82 2.21 9.92 4.26 1.91 1.26 3.82 2.74 5.82 3.53 1.14.42 2.32.63 3.5.47 2.87-.42 59.97 8.91 66.77 10.99 27.24 8.32 29.38-15.67 51.65-17.46 5.27-1.92 11.37-1.84 16.78-1.29z" class="color21032b svgShape"></path><linearGradient id="q" x1="1571.814" x2="1643.999" y1="1029.97" y2="1029.97" gradientUnits="userSpaceOnUse"><stop offset="0" stop-color="#1d4a87" class="stopColor871d5c svgShape"></stop><stop offset=".944" stop-color="#183660" class="stopColor601843 svgShape"></stop></linearGradient><circle cx="1607.91" cy="1029.97" r="36.09" fill="url(#q)"></circle><path fill="#03142b" d="M1618.25 1044.44c-7.76-15.21-.78-32.98 13.04-41.76-6.31-5.41-14.41-8.8-23.37-8.8-19.93 0-36.09 16.16-36.09 36.09 0 19.93 16.16 36.09 36.09 36.09 8.64 0 16.45-3.16 22.67-8.22-5.18-3.38-9.55-7.93-12.34-13.4z" opacity=".25" class="color21032b svgShape"></path><path fill="#ffffff" d="M1635.65 1038.32c5.76 5.87 9.55-22.8-3.69-27.66-4.33-1.59-5.2 18.6 3.69 27.66z" opacity=".2" class="colorffffff svgShape"></path><linearGradient id="r" x1="1368.385" x2="1440.569" y1="1029.97" y2="1029.97" gradientUnits="userSpaceOnUse"><stop offset="0" stop-color="#1d4a87" class="stopColor871d5c svgShape"></stop><stop offset=".944" stop-color="#183660" class="stopColor601843 svgShape"></stop></linearGradient><circle cx="1404.48" cy="1029.97" r="36.09" fill="url(#r)"></circle><path fill="#ffffff" d="M1375.04 1038.32c-5.76 5.87-9.55-22.8 3.69-27.66 4.33-1.59 5.2 18.6-3.69 27.66z" opacity=".2" class="colorffffff svgShape"></path><path fill="#03142b" d="M1404.48 993.88c-5.78 0-11.17 1.49-16.01 3.9.14.42.24.87.21 1.39-.38 8.05 4.23 15 7.18 22.18 2.96 7.2 4.67 15.58 1.34 22.98-3.25 7.23-9.78 10.57-17.02 12.17 6.42 5.89 14.9 9.56 24.3 9.56 19.93 0 36.09-16.16 36.09-36.09 0-19.93-16.16-36.09-36.09-36.09z" opacity=".25" class="color21032b svgShape"></path><path fill="#aaceff" d="m1453.32 1210.41 13.43-95.73 78.54-.81 16.78 88.43s-17.9 38.13-51.69 38.13c-40.28 0-57.06-30.02-57.06-30.02z" enable-background="new" class="colorffafaa svgShape"></path><path fill="#8aaddd" d="M1516.11 1190.49c12.52-2.55 20.38-13.79 30.28-20.94 2.69-1.94 5.58-3.48 8.53-4.89l-9.64-50.79-78.54.81-7.56 53.9c15.11 15.45 34.22 26.53 56.93 21.91z" enable-background="new" opacity=".25" class="colordd8a8a svgShape"></path><path fill="#8aaddd" d="M1553.47 1156.82c-8.1 9.05-24.41 24.51-41.66 24.51-19.15 0-42.08-17.15-51.02-24.41l6-42.29 78.48-.74 8.2 42.93z" enable-background="new" opacity=".25" class="colordd8a8a svgShape"></path><path fill="#aaceff" d="M1408.13 1013.56s-9.37 90 18.75 116.25c28.12 26.25 86.25 32.81 86.25 32.81s64.68-20.62 77.81-34.69c13.12-14.06 17.81-111.56 17.81-111.56l-94.68-46.87-105.94 44.06z" enable-background="new" class="colorffafaa svgShape"></path><path fill="#8aaddd" d="M1594.99 1092.45c-6.86 9.42-15.81 17.04-24.74 24.42-7.38 6.11-14.52 13.4-23.16 17.72-8.96 4.48-19.96 6.48-29.9 6.7-10.25.22-18.15-2.96-26.89-7.89-6.42-3.62-11.64-3.82-18.9-2.93-4.44.54-8.94 1.01-13.42.79-19.55-.95-33.35-15.06-43.89-30.22-1.07-1.54-1.98-3.18-3-4.75 3.02 13.91 7.94 26.2 15.79 33.52 28.12 26.25 86.25 32.81 86.25 32.81s64.68-20.62 77.81-34.69c5.79-6.2 9.93-28.62 12.76-51.76-2.41 5.68-5.04 11.24-8.71 16.28zM1514.07 969.5l-105.93 44.06s-1.4 13.54-1.49 31.63c9.4 8.95 24.02 9.57 37.48 7.26 9.77-1.68 19.68-3.89 26.54-11.61 4.11-4.62 5.63-9.51 6.46-15.49.84-6.03 2.84-11.7 5.08-17.34 1.35-3.4 5.72-2.74 6.98-.26 9.8-.97 19.63 1.33 29.45 1.02-.12-.24-.19-.51-.32-.75-2.33-4.27 4.49-7.46 6.8-3.23 2.63 4.83 3.26 10.24 4.87 15.43 1.66 5.36 4.26 10.46 7.78 14.83 6.86 8.53 15.55 13.26 25.81 16.7 10.17 3.4 20.44 4.05 31 2.31 3.75-.62 8.06-1.5 11.76-3.26 1.69-19.24 2.42-34.43 2.42-34.43l-94.69-46.87z" opacity=".25" class="colordd8a8a svgShape"></path><path fill="#8aaddd" d="M1483.46 1105.2c-.36-11.89 39.57-11.6 45.94.94 8.2 16.17-45 29.76-45.94-.94z" opacity=".25" class="colordd8a8a svgShape"></path><path fill="#8aaddd" d="M1542.52 1097.89s-14.67 16.56-37.29 16.31c-22.62-.25-36.23-15.33-36.23-15.33s.57-.9 1.72-2.38c4.26-5.57 16.47-19.1 34.26-19.51 16.56-.33 29.1 11.15 34.51 17.21 1.96 2.22 3.03 3.7 3.03 3.7z" class="colordd8a8a svgShape"></path><path fill="#183660" d="M1474.33 1097.17s8.28 10.22 30.19 9.49c21.91-.73 33.11-11.69 33.11-11.69s-11.69-14.12-31.65-14.85c-19.97-.72-31.65 17.05-31.65 17.05z" class="color601843 svgShape"></path><path fill="#ffffff" d="M1539.49 1094.2c0 .16-.08.25-.16.33-2.95 3.11-5.08 2.87-8.03.49-1.26-1.02-5.03-4.46-9.67-7.64-9.31-6.39-22.64-6.03-34.69.91-6.69 3.85-7.95 10.25-10.22 11.15-2.95 1.07-5.41-2.21-5.98-2.95 4.26-5.57 16.47-19.1 34.26-19.51 16.54-.32 29.08 11.15 34.49 17.22z" class="colorffffff svgShape"></path><path fill="#183660" d="m1414.06 1040.53 61.7-4.37s9.41-21.16 27.98-21.16c18.56 0 28.4 19.37 28.4 19.37l70.29 6.16 51.87-61.63s-116.03 14.07-289.65-1.51c0-.01 36.58 57.4 49.41 63.14z" class="color601843 svgShape"></path><path fill="#ffffff" d="M1527.3 993.67s102.58-6.29 127.17-14.55c0 .01-50.96 20.59-127.17 14.55zM1367.5 979.37s37.55 9.16 60.79 10.73c0 0-32.41 3.8-60.79-10.73z" opacity=".2" class="colorffffff svgShape"></path><path fill="#03142b" d="M1621.89 1001.22c-22.28 6.19-47.05 10.32-70.21 7.68-11.17-1.27-21-7.61-32.08-9-12.57-1.57-24.84 2.81-36.99 5.29-12.06 2.46-24.49 3.44-36.77 3.85-12.34.41-25.63.81-37.78-1.69-12.69-2.61-24.29-8.96-34.77-16.84 11.63 17.31 31.89 46.04 40.77 50.01l61.7-4.37s9.41-21.16 27.98-21.16c18.56 0 28.4 19.37 28.4 19.37l70.29 6.16 39.13-46.13c-5.07 1.75-14.51 5.4-19.67 6.83z" opacity=".25" class="color21032b svgShape"></path><path fill="#1b3f70" d="M1505.66 993.81c-53.4 0-99.63-4.78-133.68-13.81l-7.97-2.12.15-8.25c.14-7.73 1.9-75.86 19.36-88.23l.89-.64 1.02-.44c10.87-4.71 55.65-7.4 122.86-7.4 10.39 0 20.67-.16 30.59-.33 9.34-.14 18.35-.29 26.82-.29 21.82 0 43.86.84 57.24 7.02 23.49 10.84 29.6 72.47 30.91 91.1l.62 8.7-8.43 2.21c-19.1 5.02-72.23 12.48-140.38 12.48z" class="color132368 svgShape"></path><linearGradient id="s" x1="1378.41" x2="1596.118" y1="768.024" y2="1062.57" gradientUnits="userSpaceOnUse"><stop offset=".008" stop-color="#133768" class="stopColor132368 svgShape"></stop><stop offset="1" stop-color="#03142b" class="stopColor21032b svgShape"></stop></linearGradient><path fill="url(#s)" d="M1618.53 888.88c-18.99-8.76-63.52-5.44-110.24-5.44-98.76 0-116.41 5.55-118.7 6.53-7.69 5.46-14.21 42.01-14.91 79.85 32.87 8.72 78.62 13.46 130.97 13.46 65.24 0 118.5-7.08 137.71-12.12-1.43-20.22-8.58-74.78-24.83-82.28z"></path><path fill="#ffffff" d="M1402.37 900.48s167.62 6.7 209.19-1.79c41.56-8.49-169.41-17.43-209.19 1.79z" opacity=".2" class="colorffffff svgShape"></path><linearGradient id="t" x1="1480.348" x2="1634.414" y1="-189.028" y2="1246.864" gradientUnits="userSpaceOnUse"><stop offset=".02" stop-color="#d1ddee" class="stopColord1e1ee svgShape"></stop><stop offset=".363" stop-color="#508ee2" class="stopColor50a7e2 svgShape"></stop><stop offset="1" stop-color="#184f9b" class="stopColor182b9b svgShape"></stop></linearGradient><path fill="url(#t)" d="M2372.17 306.09c-21.35 40.86-46.98 88.58-54.57 101.43-19.93 33.74-44.01 65.08-73.07 91.47-33.43 30.36-73.35 53.99-114.45 72.36-43.23 19.33-88.74 32.68-134.05 46.12-43.01 12.75-87.42 24.84-127.82 44.66-39.37 19.32-74.06 47.1-104.33 78.62-13.76 14.33-26.74 29.29-38.27 45.47-11.4 15.99-22.15 32.44-34.24 47.92-12.2 15.64-54.29 88.92-54.29 106.4 0 .6.05 1.13.15 1.59 3.52 16.16 5.46 33.12 6.13 42.58-19.21 5.04-72.46 12.12-137.71 12.12-52.35 0-98.1-4.74-130.97-13.46.43-23.28 3.07-46.06 6.83-61.42 1.74-7.14-45.63-78.98-76.16-81.06-33.8-2.3-69.07 11.36-101.33 19.69-33.08 8.54-68.51 17.08-102.76 10.89-43.4-7.85-72.18-42.53-80.8-84.62-4.77-23.31-5.21-47.29-10.33-70.55-4.1-18.59-11.88-35.77-23.69-50.76-22.56-28.62-56.25-45.47-89.51-58.46-45.23-17.66-92.1-30.57-140.1-37.97-11.4-1.75-22.84-3.2-34.3-4.34 385.88-170.17 621.11 7.79 966.65-184.08 298.98-166.02 525.16-153.26 682.99-74.6z" opacity=".5"></path><path fill="#1b3f70" d="m1603.52 941.48-51.24-8.8 47.35-8.45c3.65-.65 5.32-4.55 3.75-8.64-1.53-4.01-5.61-6.71-9.14-6.1l-88.51 15.2-88.51-15.2c-3.53-.61-7.61 2.09-9.14 6.1-1.56 4.09.1 7.99 3.75 8.64l47.35 8.45-51.24 8.8c-4.13.71-7.9 5.05-8.42 9.79-.53 4.84 2.53 8.22 6.83 7.45l99.38-17.73 99.39 17.73c4.3.77 7.36-2.61 6.83-7.45-.53-4.74-4.3-9.08-8.43-9.79z" class="color132368 svgShape"></path><path fill="#8aaddd" d="M1485.75 1036.52s15.35-2.82 15.26-3.97c-.09-1.15-1.85-8.56-3.88-8.29-2.03.26-11.83 11.46-11.38 12.26zM1521.05 1036.52s-15.35-2.82-15.26-3.97c.09-1.15 1.85-8.56 3.88-8.29 2.03.26 11.83 11.46 11.38 12.26z" class="colordd8a8a svgShape"></path><ellipse cx="1452.12" cy="1070.67" fill="#8aaddd" opacity=".25" rx="23.6" ry="13.91" transform="rotate(-12.674 1452.031 1070.62)" class="colordd8a8a svgShape"></ellipse><path fill="#8aaddd" d="M1543.17 1065.49c-1.69 7.49 7.26 15.89 19.98 18.75 12.72 2.86 24.39-.9 26.08-8.39s-7.26-15.89-19.98-18.75c-12.72-2.86-24.39.89-26.08 8.39z" opacity=".25" class="colordd8a8a svgShape"></path><path fill="#8aaddd" d="m1460.96 1149.97 52.03 8.32 39.49-9.96s-28.59 14.24-39.35 14.3c-24.16.11-52.17-12.66-52.17-12.66z" enable-background="new" class="colordd8a8a svgShape"></path><g fill="#000000" class="color000000 svgShape"><linearGradient id="u" x1="1266.722" x2="1098.448" y1="851.202" y2="1123.244" gradientTransform="scale(-1 1) rotate(-22.007 -.285 9566.978)" gradientUnits="userSpaceOnUse"><stop offset=".02" stop-color="#d1ddee" class="stopColord1e1ee svgShape"></stop><stop offset=".363" stop-color="#508ee2" class="stopColor50a7e2 svgShape"></stop><stop offset="1" stop-color="#184f9b" class="stopColor182b9b svgShape"></stop></linearGradient><path fill="url(#u)" fill-rule="evenodd" d="m2226.74 1247.4 17.19-45.75-225.77-96.03-20.88 55.59z" clip-rule="evenodd"></path><path fill="#1b3f70" fill-rule="evenodd" d="M2210.92 1193.02c-12.33.49-24.69.32-36.98-.8-25.58-2.33-50.12-9.8-74.2-18.43-24.87-8.91-49.05-19.72-72.15-32.55-6.32-3.51-12.54-7.18-18.68-10.98l9.25-24.64 204.28 86.88c-3.86.23-7.71.37-11.52.52z" clip-rule="evenodd" opacity=".1" class="color132368 svgShape"></path><path fill="#508ee2" fill-rule="evenodd" d="M2018.16 1105.62s-108.11-39.76-132.63-92.8l195.97 95.1s13.45 27.62 162.43 93.72l-225.77-96.02z" clip-rule="evenodd" class="color50a7e2 svgShape"></path><path fill="#d1ddee" fill-rule="evenodd" d="m1855.94 1091.6 141.33 69.6 20.88-55.58c-102.99-40.38-130.87-89.3-130.87-89.3a60.632 60.632 0 0 0-5.05 5.31s23.25 32.77 71.28 57.78c-2.1-1.49-13-2.96-80.07-38.56-13.31 14.48-17.5 50.75-17.5 50.75z" clip-rule="evenodd" class="colord1e1ee svgShape"></path><path fill="#1b3f70" fill-rule="evenodd" d="M1879.7 1092.87c9.21 4.71 18.95 9.65 29.23 11.43 4.88.84 9.87 1.27 14.59 2.87 4.98 1.69 9.77 4.18 14.35 6.74 8.71 4.86 16.54 11.02 25.06 16.16 3.88 2.33 7.97 4.42 12.29 5.82 3.76 1.21 8.06 2.11 11.93.88 3.48-1.11 6.13-3.62 8.39-6.39 1.4-1.72 3.01-3.17 4.49-4.81 1.15-1.28 2.2-2.78 2.02-4.59-.16-1.63-1.31-3.12-2.37-4.31-.8-.9-1.87-1.66-2.29-2.83-.58-1.61-.03-3.1.04-4.7.07-1.43-.93-2.75-1.97-3.63-1.44-1.21-3.21-1.93-4.91-2.71-2.02-.93-4.01-1.97-5.98-2.99-4.88-2.54-9.67-5.26-14.4-8.07-4.49-2.68-8.93-5.37-13.07-8.58-2.18-1.69-4.34-3.41-6.58-5 1.06.4 1.8.68 2.3.9-1.62-.85-3.2-1.71-4.76-2.57-1.04-.65-2.1-1.26-3.21-1.81-42.15-24.21-62.62-53.03-62.62-53.03 1.59-1.9 3.29-3.66 5.05-5.31 0 0 27.88 48.92 130.87 89.3l-20.88 55.58-141.33-69.6s.58-5.04 2-12.1c6.86 5.04 14.17 9.47 21.76 13.35z" clip-rule="evenodd" opacity=".1" class="color132368 svgShape"></path><path fill="#184f9b" fill-rule="evenodd" d="M1952.19 1094.36s-56.48-18.04-86.35-40.19l-.67 1.66s15.78 13.77 31.19 20.75c0 0-9.38-5.05-12.32-8.59 0 0 29.96 15.47 68.15 26.37zM1976.54 1122.68s-76.19-24.33-116.47-54.22l-.91 2.24s21.28 18.57 42.07 28c0 0-12.66-6.82-16.62-11.59-.01 0 40.41 20.87 91.93 35.57z" clip-rule="evenodd" opacity=".35" class="color182b9b svgShape"></path><linearGradient id="v" x1="1854.566" x2="2018.156" y1="1087.018" y2="1087.018" gradientUnits="userSpaceOnUse"><stop offset=".02" stop-color="#d1ddee" class="stopColord1e1ee svgShape"></stop><stop offset=".363" stop-color="#508ee2" class="stopColor50a7e2 svgShape"></stop><stop offset="1" stop-color="#184f9b" class="stopColor182b9b svgShape"></stop></linearGradient><path fill="url(#v)" fill-rule="evenodd" d="m1854.57 1091.09 142.71 70.12 20.88-55.59s-103.94-41.47-132.63-92.8l-2.31 1.98s29.16 51.19 131.59 92.08l-17.97 52.95-142.03-70.75-.24 2.01z" clip-rule="evenodd"></path><path fill="#1b3f70" fill-rule="evenodd" d="m2014.81 1106.88-2.9-1.17-19.68 52.39 4.62 1.73z" clip-rule="evenodd" opacity=".1" class="color132368 svgShape"></path><path fill="#d1ddee" fill-rule="evenodd" d="m2202.19 1233.72 13.83-36.83-182.09-74.12s-14.13 45.68-13.34 42.58l181.6 68.37zM2012.39 1162.43l15.72-41.84-7.5-3.82-12.13 44.19z" clip-rule="evenodd" opacity=".25" class="colord1e1ee svgShape"></path><path fill="#ffffff" fill-rule="evenodd" d="m1873.43 1040.86 53.61 22.52s15.82 10.63 26.46 16.04c0 0-41.61-16.02-80.07-38.56z" clip-rule="evenodd" class="colorffffff svgShape"></path><path fill="#184f9b" fill-rule="evenodd" d="M1933.59 1071.35s-4.12-10.52-10.33-14.22l-4.92-1.59-10.33-2.09s9.3 5.19 12.24 12.05l13.34 5.85z" clip-rule="evenodd" class="color182b9b svgShape"></path><linearGradient id="w" x1="1910.036" x2="1565.701" y1="893.521" y2="1065.046" gradientTransform="rotate(22.007 1576.36 1461.204)" gradientUnits="userSpaceOnUse"><stop offset=".02" stop-color="#d1ddee" class="stopColord1e1ee svgShape"></stop><stop offset=".363" stop-color="#508ee2" class="stopColor50a7e2 svgShape"></stop><stop offset="1" stop-color="#184f9b" class="stopColor182b9b svgShape"></stop></linearGradient><path fill="url(#w)" fill-rule="evenodd" d="M1923.26 1057.13s-14.54-7.2-32.82 16.75c-16.2 21.23-27.66 26.59-27.66 26.59l-19.21-11.35c33.93-22.76 37.43-38.25 64.44-35.67.01 0 9.97 1.47 15.25 3.68z" clip-rule="evenodd"></path><path fill="#d1ddee" fill-rule="evenodd" d="m937.5 1203.67 202.49-91.52-65.44-276.66L808.98 959.3z" clip-rule="evenodd" class="colord1e1ee svgShape"></path><path fill="#1b3f70" fill-rule="evenodd" d="M1122.57 1073.6c-16.76 8.35-34.35 14.97-52.15 20.74-35.81 11.61-73 19.36-110.52 22.57-16.74 1.43-33.76 2.31-50.51.66-6.28-.62-12.51-1.65-18.69-2.88l46.8 88.99 202.49-91.52-10.04-42.44c-2.45 1.34-4.92 2.65-7.38 3.88z" clip-rule="evenodd" opacity=".1" class="color132368 svgShape"></path><path fill="#508ee2" fill-rule="evenodd" d="m988.81 939.38-125.89 53.49-7.24-14.05 127.58-54.21zM1049.76 913.48l-40.92 17.39-5.28-14.89 41.47-17.62zM1003.98 979.77l-121.25 51.52-6.72-13.03 122.82-52.19zM1062.68 954.83l-39.41 16.74-4.89-13.8 39.92-16.96zM1018.07 1017.29l-116.94 49.68-6.25-12.11 118.41-50.31zM1074.69 993.23l-38.01 16.15-4.55-12.83 38.48-16.35zM1031.19 1052.23l-112.93 47.98-5.82-11.29 114.29-48.56zM1085.86 1029l-36.7 15.6-4.24-11.96 37.15-15.79zM1043.44 1084.86l-109.18 46.38-5.43-10.55 110.45-46.92zM1096.3 1062.4l-35.49 15.07-3.96-11.17 35.9-15.26zM1054.91 1115.38l-105.67 44.9-5.1-9.88 106.87-45.4zM1106.07 1093.65l-34.35 14.59-3.71-10.47 34.73-14.75z" clip-rule="evenodd" opacity=".35" class="color50a7e2 svgShape"></path><path fill="#1b3f70" fill-rule="evenodd" d="m1106.6 969.05 4.41 19.22-134.71 80.21 20.39-24.53z" clip-rule="evenodd" opacity=".25" class="color132368 svgShape"></path><linearGradient id="x" x1="1276.965" x2="971.475" y1="878.66" y2="1020.13" gradientTransform="rotate(-3.97 1418.489 1416.829)" gradientUnits="userSpaceOnUse"><stop offset=".02" stop-color="#d1ddee" class="stopColord1e1ee svgShape"></stop><stop offset=".363" stop-color="#508ee2" class="stopColor50a7e2 svgShape"></stop><stop offset="1" stop-color="#184f9b" class="stopColor182b9b svgShape"></stop></linearGradient><path fill="url(#x)" fill-rule="evenodd" d="m976.9 1052.6 142.34-130.02 13.31 15.57-146.67 125.03z" clip-rule="evenodd"></path><path fill="#ffffff" fill-rule="evenodd" d="m976.9 1052.6-16.94 23.5 2.23.46 23.69-13.38 1.94-3.1-3.7.41 1.04-4.93-6.02-.31 1.59-4.02z" clip-rule="evenodd" class="colorffffff svgShape"></path><path fill="#1b3f70" fill-rule="evenodd" d="m964.18 1070.24 2.14 3.99-4.13 2.33-2.23-.46z" clip-rule="evenodd" class="color132368 svgShape"></path><path fill="#1b3f70" fill-rule="evenodd" d="m1115.16 926.3 2.72 5.24 6.52 7.68 3.9 2.55 4.25-3.62-13.31-15.57z" clip-rule="evenodd" opacity=".5" class="color132368 svgShape"></path><path fill="#4594ff" fill-rule="evenodd" d="m1119.24 922.58 2.02 4.78 6.84 8.06 4.43 2.73 6.37-7.58s-1.05-6.05-11.12-13.09l-8.54 5.1z" clip-rule="evenodd" class="colorffe245 svgShape"></path><path fill="#03142b" fill-rule="evenodd" d="m1128.11 935.42-143.99 125.07 3.7-.41-1.94 3.1 146.67-125.03z" clip-rule="evenodd" opacity=".35" class="color21032b svgShape"></path><linearGradient id="y" x1="2137.314" x2="2107.821" y1="591.355" y2="1189.233" gradientTransform="rotate(-21.747 1539.546 1373.605)" gradientUnits="userSpaceOnUse"><stop offset=".02" stop-color="#d1ddee" class="stopColord1e1ee svgShape"></stop><stop offset=".363" stop-color="#508ee2" class="stopColor50a7e2 svgShape"></stop><stop offset="1" stop-color="#184f9b" class="stopColor182b9b svgShape"></stop></linearGradient><path fill="url(#y)" fill-rule="evenodd" d="M1976.17 566.66s-5.26-6.58-15.28-10.2c-16.32-5.91-32.52-3.89-32.52-3.89l-93.81 318.07s24.39 20.92 47.8 14.1l93.81-318.08z" clip-rule="evenodd"></path><path fill="#d1ddee" fill-rule="evenodd" d="m1855.44 828.53 30.9 9.07 67.41-214.07s-38.41-7.9-35.79-7.55l-62.52 212.55zM1920.63 606.41l35.11 10.31 3.43-8.95-37.19-5.94z" clip-rule="evenodd" opacity=".25" class="colord1e1ee svgShape"></path><linearGradient id="z" x1="2116.244" x2="1766.263" y1="547.343" y2="891.961" gradientTransform="rotate(-6.35 1541.093 1372.684)" gradientUnits="userSpaceOnUse"><stop offset=".02" stop-color="#d1ddee" class="stopColord1e1ee svgShape"></stop><stop offset=".363" stop-color="#508ee2" class="stopColor50a7e2 svgShape"></stop><stop offset="1" stop-color="#184f9b" class="stopColor182b9b svgShape"></stop></linearGradient><path fill="url(#z)" fill-rule="evenodd" d="m1834.56 870.63-67.99-57.32 72.06-251.13s13.39 1.94 16.77 2.13c18.45 1.02 72.97-11.74 72.97-11.74l-93.81 318.06z" clip-rule="evenodd"></path><path fill="#1b3f70" fill-rule="evenodd" d="M1915.34 555.45c-1.16 26.86-8.44 53.51-18.15 78.4-12.52 32.08-29.53 62.36-49.27 90.53-18.35 26.19-39.04 52.14-64.15 72.17-4.97 3.97-10.19 7.55-15.53 10.95l-1.66 5.79 67.99 57.32 93.81-318.07c-.01.02-5.26 1.25-13.04 2.91z" clip-rule="evenodd" opacity=".1" class="color132368 svgShape"></path><path fill="#d1ddee" fill-rule="evenodd" d="m1810.11 686.08 31.55-105.54 70.3-6.95-35.48 121.15z" clip-rule="evenodd" opacity=".55" class="colord1e1ee svgShape"></path><linearGradient id="A" x1="1441.199" x2="1721.579" y1="503.601" y2="503.601" gradientTransform="rotate(-6.586 1831.655 2851.354)" gradientUnits="userSpaceOnUse"><stop offset=".008" stop-color="#133768" class="stopColor132368 svgShape"></stop><stop offset="1" stop-color="#03142b" class="stopColor21032b svgShape"></stop></linearGradient><path fill="url(#A)" fill-rule="evenodd" d="m1450.53 506.02-9.69 117.87s-20.25 6.24-51.37 9.35c-54.6 5.5-142.68 1.44-213.71-62.52l25.22-85.07 5.86-19.72 243.69 40.09z" clip-rule="evenodd"></path><path fill="#ffffff" d="M1207.63 517.52c16.09-17.1 106.61 55.65 94.87 71.41-11.73 15.75-132.81-31.1-94.87-71.41z" opacity=".1" class="colorffffff svgShape"></path><path fill="#ffffff" d="M1214.78 525.68c11.2-7.51 67.76 32.55 37.1 37.77-31.51 5.36-48.3-30.26-37.1-37.77z" opacity=".1" class="colorffffff svgShape"></path><path fill="#03142b" fill-rule="evenodd" d="m1450.53 506.02-9.69 117.87s-20.25 6.24-51.37 9.35c-56.21-78.1-188.49-147.58-188.49-147.58l5.86-19.72 243.69 40.08z" clip-rule="evenodd" opacity=".35" class="color21032b svgShape"></path><path fill="#184f9b" fill-rule="evenodd" d="m1106.7 391.3-.55 7.13 170.12 127.06L1595 535.65l3.53-11.2z" clip-rule="evenodd" class="color182b9b svgShape"></path><path fill="#1b3f70" fill-rule="evenodd" d="m1106.7 391.3 288.78 18.57 203.05 114.58-314.75-12.25z" clip-rule="evenodd" class="color132368 svgShape"></path><path fill="#ffffff" d="M1159.35 405.89c6.58-7.61 196.45-.45 203.6 14.53 7.15 14.97-144.82-8.49-142.59 5.14 2.23 13.63 28.83 48.94-.89 30.17-29.72-18.78-64.36-44.93-60.12-49.84z" opacity=".2" class="colorffffff svgShape"></path><path fill="#03142b" fill-rule="evenodd" d="M1405.4 415.47c.27 2.06.43 4.14.45 6.25.14 14.43-6.47 28.17-17.53 37.37-11.87 9.87-27.26 13.04-41.96 16.3-15.88 3.52-32 6.03-48.2 7.43-18.97 1.65-38.1 1.81-57.09.21l42.71 29.16 314.76 12.25-193.14-108.97zM1276.27 525.49l7.51-13.29 314.75 12.25-3.53 11.2z" clip-rule="evenodd" opacity=".35" class="color21032b svgShape"></path><path fill="#173a6a" fill-rule="evenodd" d="m1332.68 451.44 170.53 72.76.99 8.6 17.09.55.57-13.97z" clip-rule="evenodd" opacity=".5" class="color6a1760 svgShape"></path><path fill="#3d7cd1" fill-rule="evenodd" d="m1575.46 619.15-2.61-1.85c0-.06.01-.11.07-.17.35-1.05 1.85-6.4.14-12.78-.09-.4-.18-.75-.28-.92-.04-.29-.09-.4-.09-.4-2.31-6.82-8.53-14.54-23.79-19.64-13.72-12.93-17.92-67.74-17.92-67.74l-198.28-64.23 178.81 69.97c17.18 51.79 22.75 64.63 24.27 67.61.1.23.2.41.25.52.11.12.16.24.21.35-.06 0-4.06 5.36-4.49 12.64-.14 2.37.1 4.93.97 7.53 2.11 6.41 7.92 13.32 21.17 18.92 0 0 1.43 53.91 31.46 95.04 0 0 14.08.34 34.37-10.44-7.29-7.62-14.2-15.63-21.41-23.32-8.48-9.04-19.92-35.05-18.09-31.91 6.18 10.65 14.43 19.78 22.83 28.7 7.33 7.8 14.33 15.95 21.76 23.65 6.73-4.01 13.99-9.18 21.6-15.99 0 0-14.02-9.72-32.09-24.78l-.16-.12c-.6-.43-1.08-.86-1.68-1.29l-1.29-1.15c-2.05-1.71-4.09-3.47-6.25-5.3-.59-.54-1.23-1.15-1.88-1.7-11.03-9.66-22.82-20.72-33.38-32.44-.21-.24-.37-.42-.48-.54 3.06 2.84 45.8 42.52 82.3 64.45l6.6-5.27s-21.38-10.67-64.77-44.33l-.87-.67c-.87-.62-1.68-1.29-2.49-1.96-.43-.31-.87-.67-1.3-1.04.33.19.6.38.87.62l.54.37c16.85 12.61 44.66 31.19 73.17 40.98 0 0 8.57-4.13 11.17-21.18.01.01-57.01-10.97-98.96-40.19z" clip-rule="evenodd" class="colord1c63d svgShape"></path><path fill="#326ebf" fill-rule="evenodd" d="M1526.49 519.37s5.29 56.17 9.53 70.15c-1.13-3.15-7.72-16.08-24.52-68.13l14.99-2.02zM1624.79 710.67c6.73-4.01 13.99-9.18 21.6-15.99 0 0-.24-.17-.69-.48-1.75.11-3.46.2-5.08.26-10.33.36-20.61.6-30.9-.7-.19-.02-.38-.05-.57-.07 5.17 5.7 10.3 11.45 15.64 16.98zM1600.19 692.3c-5.53-1.09-11.01-2.8-15.44-5.97-11.4-8.17-14.34-23.78-16.78-36.65-1.66-8.77-2.76-17.45-1.99-26.4.15-1.74.92-4.28.1-5.94-.78-1.59-3.03-2.07-4.62-2.3-4.22-.6-8.46.48-12.64-.66-8.01-2.19-10.05-9.76-10.09-17.12-.01-1.49 1.39-8.92.14-9.73.42.27-1.46 1.29-2.65 1.9.02.39-.03.44-.03.44h.01c-.01.02-6.97 9.45-3.49 20.17 2.08 6.41 7.89 13.3 21.16 18.92 0 0 1.41 53.91 31.45 95.02 0 0 14.09.33 34.38-10.44-6.64-6.94-12.98-14.19-19.51-21.24z" clip-rule="evenodd" opacity=".55" class="colorbfb232 svgShape"></path><path fill="#24569a" fill-rule="evenodd" d="M1588.7 638.54c-.4-.32-.76-.64-1.12-.95l1.95 1.58.55.41 2.4 2c-.87-.66-1.7-1.29-2.5-1.95-.44-.39-.88-.73-1.28-1.09z" clip-rule="evenodd" opacity=".5" class="color9a2463 svgShape"></path><path fill="#326ebf" fill-rule="evenodd" d="M1561.57 631.19s1.77 46.06 23.74 92.8c-30.04-41.11-31.45-95.02-31.45-95.02-13.26-5.63-19.08-12.51-21.16-18.92 0 0 8.04 14.87 24.08 11.07 16.04-3.8 15.88-18.06 15.88-18.06s.05.1.11.35c.42 1.43 1.86 7.34.1 13.72-.03.08-.02.11-.05.19l2.6 1.83-3.46.4s3.39 7.49 15.36 17.82l-18.15-14.75-3.17 1.99 3.01 2.62s.04.07.16.16c.08.1.25.3.49.52 3.33 3.48 18.55 19.22 33.34 32.45.64.58 1.29 1.15 1.93 1.69 1.78 1.6 3.54 3.13 5.3 4.59l-46.24-37.72-2.42 2.27z" clip-rule="evenodd" opacity=".55" class="colorbfb232 svgShape"></path><path fill="#03142b" fill-rule="evenodd" d="M1175.76 570.72s99.32 87.92 265.08 53.16c-.01.01-148.75 47.52-265.08-53.16z" clip-rule="evenodd" opacity=".35" class="color21032b svgShape"></path></g></svg>