<svg xmlns="http://www.w3.org/2000/svg" data-name="UI/UX" viewBox="0 0 512 512" id="UiUx"><path d="M289.4 280.65a33.9 33.9 0 0 0-33.86 33.86v65.89c0 6-4.06 10.08-10.09 10.08s-10.08-4.05-10.08-10.08v-65.89a33.86 33.86 0 0 0-67.72 0v65.89c0 42.76 35.21 77.8 77.8 77.8s77.81-35.05 77.81-77.8v-65.89a33.9 33.9 0 0 0-33.86-33.86zm18.86 99.75a62.81 62.81 0 0 1-125.61 0v-65.89a18.86 18.86 0 0 1 37.72 0v65.89c0 14.3 10.78 25.08 25.08 25.08s25.09-10.78 25.09-25.08v-65.89a18.86 18.86 0 1 1 37.72 0zm186.23-84.05a33.87 33.87 0 0 0-47.84 2.13l-18.37 20.09-18.36-20.09a33.87 33.87 0 0 0-50 45.71l22.46 24.55-22.46 24.54a33.87 33.87 0 0 0 50 45.71l18.36-20.08L446.65 439a33.86 33.86 0 0 0 50-45.71l-22.45-24.54 22.45-24.55a33.84 33.84 0 0 0-2.16-47.85zm-8.93 37.72-27.09 29.6a7.51 7.51 0 0 0 0 10.13l27.09 29.61a18.86 18.86 0 0 1-27.84 25.46l-23.9-26.14a7.5 7.5 0 0 0-11.07 0l-23.9 26.14A18.86 18.86 0 0 1 371 403.41l27.08-29.61a7.49 7.49 0 0 0 0-10.13L371 334.06a18.86 18.86 0 0 1 27.84-25.45l23.9 26.13a7.5 7.5 0 0 0 11.07 0l23.9-26.13a18.86 18.86 0 0 1 27.84 25.46zM128.25 53.8a33.9 33.9 0 0 0-33.86 33.86v65.88c0 6-4 10.09-10.08 10.09s-10.09-4-10.09-10.09V87.66a33.86 33.86 0 1 0-67.72 0v65.88c0 42.6 35.05 77.81 77.81 77.81s77.8-35.13 77.8-77.81V87.66a33.9 33.9 0 0 0-33.86-33.86zm18.86 99.74a62.81 62.81 0 1 1-125.61 0V87.66a18.86 18.86 0 1 1 37.72 0v65.88c0 14.3 10.79 25.09 25.09 25.09s25.08-10.79 25.08-25.09V87.66a18.86 18.86 0 0 1 37.72 0zm72.94 75.69a32.92 32.92 0 0 0 32.88-32.88V88.8a32.88 32.88 0 1 0-65.75 0v107.55a32.91 32.91 0 0 0 32.87 32.88zM202.18 88.8a17.88 17.88 0 1 1 35.75 0v107.55a17.88 17.88 0 1 1-35.75 0zm101.97 78.54a30.95 30.95 0 1 0 30.94 30.94 31 31 0 0 0-30.94-30.94zm0 46.89a15.95 15.95 0 1 1 15.94-15.95 16 16 0 0 1-15.94 15.95zM124.6 396.32a30.94 30.94 0 1 0 30.94 30.94 31 31 0 0 0-30.94-30.94zm0 46.88a15.94 15.94 0 1 1 15.94-15.94 16 16 0 0 1-15.94 15.94z" fill="#1b3f70" class="color000000 svgShape"></path></svg>