<?xml version="1.0" encoding="UTF-8"?>
<svg xmlns="http://www.w3.org/2000/svg" xmlns:xlink="http://www.w3.org/1999/xlink" viewBox="0 0 516.84 134.07">
  <defs>
    <style>
      .cls-1 {
        fill: url(#linear-gradient);
      }

      .cls-1, .cls-2, .cls-3, .cls-4, .cls-5, .cls-6, .cls-7, .cls-8, .cls-9, .cls-10 {
        stroke-width: 0px;
      }

      .cls-2 {
        fill: url(#linear-gradient-6);
      }

      .cls-11 {
        isolation: isolate;
      }

      .cls-3 {
        fill: url(#linear-gradient-5);
      }

      .cls-4 {
        fill: url(#linear-gradient-7);
        opacity: .1;
      }

      .cls-4, .cls-8, .cls-9 {
        mix-blend-mode: overlay;
      }

      .cls-5 {
        fill: url(#linear-gradient-3);
      }

      .cls-6 {
        fill: url(#linear-gradient-9);
      }

      .cls-12 {
        fill: #000;
        font-family: sans-serif;
        font-size: 80px;
        font-weight: 500;
        opacity: .99;
      }

      .cls-7 {
        fill: url(#linear-gradient-8);
      }

      .cls-8 {
        fill: url(#linear-gradient-2);
      }

      .cls-9 {
        fill: url(#linear-gradient-4);
      }

      .cls-10 {
        fill: url(#linear-gradient-10);
      }
    </style>
    <linearGradient id="linear-gradient" x1="47.51" y1="70.09" x2="40.46" y2="19.82" gradientUnits="userSpaceOnUse">
      <stop offset="0" stop-color="#0013a2"/>
      <stop offset=".33" stop-color="#042fb8"/>
      <stop offset="1" stop-color="#1076f1"/>
    </linearGradient>
    <linearGradient id="linear-gradient-2" x1="33.19" y1="23.29" x2="1.07" y2="68.21" gradientUnits="userSpaceOnUse">
      <stop offset="0" stop-color="#1c1b19" stop-opacity="0"/>
      <stop offset=".62" stop-color="rgba(28, 27, 25, .54)" stop-opacity=".54"/>
      <stop offset="1" stop-color="#1c1b19" stop-opacity=".95"/>
    </linearGradient>
    <linearGradient id="linear-gradient-3" x1="68.11" y1="54.26" x2="14.01" y2="54.26" gradientUnits="userSpaceOnUse">
      <stop offset="0" stop-color="#28c6f1"/>
      <stop offset=".39" stop-color="#1fa9f1"/>
      <stop offset="1" stop-color="#1076f1"/>
    </linearGradient>
    <linearGradient id="linear-gradient-4" x1="68.11" y1="54.26" x2="14.01" y2="54.26" xlink:href="#linear-gradient-2"/>
    <linearGradient id="linear-gradient-5" x1="28.97" y1="107.68" x2="28.97" y2="36" gradientUnits="userSpaceOnUse">
      <stop offset="0" stop-color="#288df1"/>
      <stop offset=".28" stop-color="#35a9f4"/>
      <stop offset=".89" stop-color="#59f1fd"/>
      <stop offset="1" stop-color="#60ffff"/>
    </linearGradient>
    <linearGradient id="linear-gradient-6" x1="82.77" y1="32.85" x2="13.23" y2="32.85" xlink:href="#linear-gradient-3"/>
    <linearGradient id="linear-gradient-7" x1="82.77" y1="32.85" x2="13.23" y2="32.85" xlink:href="#linear-gradient-2"/>
    <linearGradient id="linear-gradient-8" x1="26.99" y1="73.08" x2="26.99" y2="4.09" xlink:href="#linear-gradient-5"/>
    <linearGradient id="linear-gradient-9" x1="76.65" y1="83.19" x2="60.7" y2="104.6" xlink:href="#linear-gradient-3"/>
    <linearGradient id="linear-gradient-10" x1="72.9" y1="87.04" x2="57.69" y2="110.46" xlink:href="#linear-gradient-5"/>
  </defs>
  <g class="cls-11">
    <g id="Layer_1" data-name="Layer 1">
      <g>
        <path class="cls-1" d="M68.25,0H18.97s-.05,0-.07,0h0C7.03,0-1.9,10.81.35,22.47l14.83,77.03c1.02,5.29,5.65,9.11,11.03,9.11h0c7.06,0,12.36-6.43,11.03-13.36L23.31,22.88c10.95-6.39,27.76-4.28,44.94,0,6.32,0,11.44-5.12,11.44-11.44h0c0-6.32-5.12-11.44-11.44-11.44Z"/>
        <path class="cls-8" d="M68.25,0H18.97s-.05,0-.07,0h0C7.03,0-1.9,10.81.35,22.47l9.05,47.01c-.22-2.58.04-34.74,14.68-42.57l-.78-4.04c10.95-6.39,27.76-4.28,44.94,0,6.32,0,11.44-5.12,11.44-11.44h0c0-6.32-5.12-11.44-11.44-11.44Z"/>
        <path class="cls-5" d="M52.65,65.7H8.67c-2.28-11.87,6.81-22.88,18.89-22.88h25.09c6.32,0,11.44,5.12,11.44,11.44h0c0,6.32-5.12,11.44-11.44,11.44Z"/>
        <path class="cls-9" d="M33.82,65.7c-.69-15.87,11.07-20.13,16.71-22.88h-22.97c-12.09,0-21.18,11.01-18.89,22.88h25.15Z"/>
        <path class="cls-3" d="M31.55,65.7h.01c-1.97-9.27,4.79-21.01,18.14-22.88h-22.14c-.14,0-.28,0-.42.01h0c-11.87-.01-20.8,10.8-18.55,22.45l.08.41h0s6.51,33.8,6.51,33.8c1.02,5.29,5.65,9.11,11.03,9.11h0c7.06,0,12.36-6.43,11.03-13.36l-5.69-29.55Z"/>
        <path class="cls-2" d="M68.25,0H22.84L2.32,32.69l6.35,33c-2.63-13.67,1.64-35.86,14.64-42.82,12.05-6.45,28.52-3.35,35.19-1.67.97.29,1.95.58,2.98.83,2.48.61,4.24.9,6.77.83,6.32,0,11.44-5.12,11.44-11.44h0c0-6.32-5.12-11.44-11.44-11.44Z"/>
        <path class="cls-4" d="M54.72,0h-31.87L2.32,32.69l6.35,33C2.32,35.73,21.92,3.51,54.72,0Z"/>
        <path class="cls-7" d="M18.9,0h0C7.03,0-1.9,10.81.35,22.47l7.76,40.32C4.06,38.49,13.44,0,53.98,0H18.97s-.05,0-.07,0Z"/>
        <path class="cls-6" d="M76.75,90.38c3.23,5.42,1.46,12.44-3.96,15.67-5.42,3.23-12.44,1.46-15.67-3.96-3.23-5.42-1.46-12.44,3.96-15.67,5.42-3.23,12.44-1.46,15.67,3.96Z"/>
        <path class="cls-10" d="M60.73,86.63c-5.15,3.32-6.78,10.15-3.61,15.45,3.23,5.42,10.25,7.19,15.67,3.96,2.24-1.34,3.86-3.32,4.76-5.58-11.43,7.83-20.46-6.03-16.81-13.83Z"/>
      </g>
      <text class="cls-12" transform="translate(117.89 86.63)"><tspan x="0" y="0">FreeLearn</tspan></text>
    </g>
  </g>
</svg>