<svg xmlns="http://www.w3.org/2000/svg" fill="none" viewBox="0 0 64 64" id="marketresearch"><path fill="#1b3f70" d="M18.4448 2C10.4643 2 3.55802 7.90602 2.79937 15.9639C1.73068 27.3148 1.73442 36.6266 2.80539 48.0222C3.56311 56.0847 10.4703 62 18.4575 62H32.9477C34.0523 62 34.9477 61.1046 34.9477 60C34.9477 58.8954 34.0523 58 32.9477 58H18.4575C12.4227 58 7.34214 53.546 6.78784 47.6479C5.85755 37.7493 5.75057 29.4961 6.46987 20H42C43.1046 20 44 19.1046 44 18C44 16.8954 43.1046 16 42 16H6.81882C7.53243 10.2777 12.5303 6 18.4448 6H45.5312C51.446 6 56.4465 10.2733 57.1467 16H52C50.8954 16 50 16.8954 50 18C50 19.1046 50.8954 20 52 20H57.51C57.8811 24.6796 58.041 29.0557 57.9911 33.4774C57.9786 34.5819 58.8639 35.4874 59.9684 35.4999C61.0729 35.5123 61.9784 34.6271 61.9908 33.5226C62.0557 27.7757 61.7758 22.1208 61.1555 15.8616C60.3609 7.84307 53.4701 2 45.5312 2H18.4448Z" class="color000000 svgShape"></path><path fill="#1b3f70" d="M15 14C16.1046 14 17 13.1046 17 12C17 10.8954 16.1046 10 15 10C13.8954 10 13 10.8954 13 12C13 13.1046 13.8954 14 15 14Z" class="color000000 svgShape"></path><path fill="#1b3f70" fill-rule="evenodd" d="M36.014 36.014C41.3659 30.662 50.0431 30.662 55.3951 36.014C60.2666 40.8855 60.7039 48.5122 56.7068 53.8784L61.4142 58.5858C62.1953 59.3668 62.1953 60.6332 61.4142 61.4142C60.6332 62.1953 59.3668 62.1953 58.5858 61.4142L53.8784 56.7068C48.5122 60.7039 40.8855 60.2666 36.014 55.3951C30.662 50.0431 30.662 41.3659 36.014 36.014ZM52.5666 38.8424C48.7768 35.0525 42.6322 35.0525 38.8424 38.8424C35.0525 42.6322 35.0525 48.7768 38.8424 52.5666C42.6322 56.3565 48.7768 56.3565 52.5666 52.5666C56.3565 48.7768 56.3565 42.6322 52.5666 38.8424Z" clip-rule="evenodd" class="color000000 svgShape"></path></svg>